ISO-10303-21;
HEADER;
/* Generated by software containing ST-Developer
 * from STEP Tools, Inc. (www.steptools.com) 
 */

FILE_DESCRIPTION(
/* description */ (''),
/* implementation_level */ '2;1');

FILE_NAME(
/* name */ 'metal_mount_3mm.step',
/* time_stamp */ '2026-04-26T05:19:33+09:00',
/* author */ (''),
/* organization */ (''),
/* preprocessor_version */ 'ST-DEVELOPER v20.1',
/* originating_system */ 'Autodesk Translation Framework v15.8.0.0',
/* authorisation */ '');

FILE_SCHEMA (('AUTOMOTIVE_DESIGN { 1 0 10303 214 3 1 1 }'));
ENDSEC;

DATA;
#10=MECHANICAL_DESIGN_GEOMETRIC_PRESENTATION_REPRESENTATION('',(#13),#2105);
#11=SHAPE_REPRESENTATION_RELATIONSHIP('SRR','None',#2111,#12);
#12=ADVANCED_BREP_SHAPE_REPRESENTATION('',(#14),#2104);
#13=STYLED_ITEM('',(#2120),#14);
#14=MANIFOLD_SOLID_BREP('metalwork_mount',#1277);
#15=FACE_BOUND('',#139,.T.);
#16=FACE_BOUND('',#146,.T.);
#17=FACE_BOUND('',#147,.T.);
#18=FACE_BOUND('',#148,.T.);
#19=FACE_BOUND('',#149,.T.);
#20=FACE_BOUND('',#150,.T.);
#21=FACE_BOUND('',#151,.T.);
#22=FACE_BOUND('',#162,.T.);
#23=FACE_BOUND('',#165,.T.);
#24=FACE_BOUND('',#200,.T.);
#25=FACE_BOUND('',#201,.T.);
#26=FACE_BOUND('',#202,.T.);
#27=FACE_BOUND('',#203,.T.);
#28=FACE_BOUND('',#204,.T.);
#29=FACE_BOUND('',#205,.T.);
#30=FACE_BOUND('',#206,.T.);
#31=FACE_BOUND('',#207,.T.);
#32=FACE_BOUND('',#208,.T.);
#33=FACE_BOUND('',#209,.T.);
#34=FACE_BOUND('',#210,.T.);
#35=PLANE('',#1282);
#36=PLANE('',#1283);
#37=PLANE('',#1284);
#38=PLANE('',#1285);
#39=PLANE('',#1286);
#40=PLANE('',#1287);
#41=PLANE('',#1288);
#42=PLANE('',#1289);
#43=PLANE('',#1290);
#44=PLANE('',#1291);
#45=PLANE('',#1295);
#46=PLANE('',#1296);
#47=PLANE('',#1315);
#48=PLANE('',#1316);
#49=PLANE('',#1317);
#50=PLANE('',#1318);
#51=PLANE('',#1319);
#52=PLANE('',#1320);
#53=PLANE('',#1330);
#54=PLANE('',#1334);
#55=PLANE('',#1337);
#56=PLANE('',#1340);
#57=PLANE('',#1343);
#58=PLANE('',#1348);
#59=PLANE('',#1353);
#60=PLANE('',#1356);
#61=PLANE('',#1357);
#62=PLANE('',#1358);
#63=PLANE('',#1365);
#64=PLANE('',#1366);
#65=PLANE('',#1371);
#66=PLANE('',#1372);
#67=PLANE('',#1375);
#68=PLANE('',#1378);
#69=PLANE('',#1383);
#70=PLANE('',#1386);
#71=FACE_OUTER_BOUND('',#131,.T.);
#72=FACE_OUTER_BOUND('',#132,.T.);
#73=FACE_OUTER_BOUND('',#133,.T.);
#74=FACE_OUTER_BOUND('',#134,.T.);
#75=FACE_OUTER_BOUND('',#135,.T.);
#76=FACE_OUTER_BOUND('',#136,.T.);
#77=FACE_OUTER_BOUND('',#137,.T.);
#78=FACE_OUTER_BOUND('',#138,.T.);
#79=FACE_OUTER_BOUND('',#140,.T.);
#80=FACE_OUTER_BOUND('',#141,.T.);
#81=FACE_OUTER_BOUND('',#142,.T.);
#82=FACE_OUTER_BOUND('',#143,.T.);
#83=FACE_OUTER_BOUND('',#144,.T.);
#84=FACE_OUTER_BOUND('',#145,.T.);
#85=FACE_OUTER_BOUND('',#152,.T.);
#86=FACE_OUTER_BOUND('',#153,.T.);
#87=FACE_OUTER_BOUND('',#154,.T.);
#88=FACE_OUTER_BOUND('',#155,.T.);
#89=FACE_OUTER_BOUND('',#156,.T.);
#90=FACE_OUTER_BOUND('',#157,.T.);
#91=FACE_OUTER_BOUND('',#158,.T.);
#92=FACE_OUTER_BOUND('',#159,.T.);
#93=FACE_OUTER_BOUND('',#160,.T.);
#94=FACE_OUTER_BOUND('',#161,.T.);
#95=FACE_OUTER_BOUND('',#163,.T.);
#96=FACE_OUTER_BOUND('',#164,.T.);
#97=FACE_OUTER_BOUND('',#166,.T.);
#98=FACE_OUTER_BOUND('',#167,.T.);
#99=FACE_OUTER_BOUND('',#168,.T.);
#100=FACE_OUTER_BOUND('',#169,.T.);
#101=FACE_OUTER_BOUND('',#170,.T.);
#102=FACE_OUTER_BOUND('',#171,.T.);
#103=FACE_OUTER_BOUND('',#172,.T.);
#104=FACE_OUTER_BOUND('',#173,.T.);
#105=FACE_OUTER_BOUND('',#174,.T.);
#106=FACE_OUTER_BOUND('',#175,.T.);
#107=FACE_OUTER_BOUND('',#176,.T.);
#108=FACE_OUTER_BOUND('',#177,.T.);
#109=FACE_OUTER_BOUND('',#178,.T.);
#110=FACE_OUTER_BOUND('',#179,.T.);
#111=FACE_OUTER_BOUND('',#180,.T.);
#112=FACE_OUTER_BOUND('',#181,.T.);
#113=FACE_OUTER_BOUND('',#182,.T.);
#114=FACE_OUTER_BOUND('',#183,.T.);
#115=FACE_OUTER_BOUND('',#184,.T.);
#116=FACE_OUTER_BOUND('',#185,.T.);
#117=FACE_OUTER_BOUND('',#186,.T.);
#118=FACE_OUTER_BOUND('',#187,.T.);
#119=FACE_OUTER_BOUND('',#188,.T.);
#120=FACE_OUTER_BOUND('',#189,.T.);
#121=FACE_OUTER_BOUND('',#190,.T.);
#122=FACE_OUTER_BOUND('',#191,.T.);
#123=FACE_OUTER_BOUND('',#192,.T.);
#124=FACE_OUTER_BOUND('',#193,.T.);
#125=FACE_OUTER_BOUND('',#194,.T.);
#126=FACE_OUTER_BOUND('',#195,.T.);
#127=FACE_OUTER_BOUND('',#196,.T.);
#128=FACE_OUTER_BOUND('',#197,.T.);
#129=FACE_OUTER_BOUND('',#198,.T.);
#130=FACE_OUTER_BOUND('',#199,.T.);
#131=EDGE_LOOP('',(#829,#830,#831,#832));
#132=EDGE_LOOP('',(#833,#834,#835,#836,#837,#838));
#133=EDGE_LOOP('',(#839,#840,#841,#842,#843,#844));
#134=EDGE_LOOP('',(#845,#846,#847,#848));
#135=EDGE_LOOP('',(#849,#850,#851));
#136=EDGE_LOOP('',(#852,#853,#854));
#137=EDGE_LOOP('',(#855,#856,#857,#858,#859));
#138=EDGE_LOOP('',(#860,#861,#862,#863));
#139=EDGE_LOOP('',(#864));
#140=EDGE_LOOP('',(#865,#866,#867,#868,#869));
#141=EDGE_LOOP('',(#870,#871,#872,#873,#874,#875));
#142=EDGE_LOOP('',(#876,#877,#878,#879,#880,#881));
#143=EDGE_LOOP('',(#882,#883,#884,#885));
#144=EDGE_LOOP('',(#886,#887,#888,#889,#890,#891));
#145=EDGE_LOOP('',(#892,#893,#894,#895,#896,#897,#898,#899,#900,#901,#902,
#903,#904,#905,#906,#907,#908,#909,#910,#911,#912,#913,#914,#915,#916,#917,
#918,#919,#920,#921,#922,#923,#924,#925,#926,#927));
#146=EDGE_LOOP('',(#928,#929,#930));
#147=EDGE_LOOP('',(#931));
#148=EDGE_LOOP('',(#932,#933,#934));
#149=EDGE_LOOP('',(#935));
#150=EDGE_LOOP('',(#936));
#151=EDGE_LOOP('',(#937));
#152=EDGE_LOOP('',(#938,#939,#940,#941));
#153=EDGE_LOOP('',(#942,#943,#944,#945,#946,#947));
#154=EDGE_LOOP('',(#948,#949,#950,#951));
#155=EDGE_LOOP('',(#952,#953,#954,#955,#956,#957));
#156=EDGE_LOOP('',(#958,#959,#960,#961,#962,#963));
#157=EDGE_LOOP('',(#964,#965,#966,#967,#968,#969));
#158=EDGE_LOOP('',(#970,#971,#972,#973));
#159=EDGE_LOOP('',(#974,#975,#976,#977));
#160=EDGE_LOOP('',(#978,#979,#980,#981));
#161=EDGE_LOOP('',(#982,#983,#984,#985));
#162=EDGE_LOOP('',(#986));
#163=EDGE_LOOP('',(#987,#988,#989,#990));
#164=EDGE_LOOP('',(#991,#992,#993,#994,#995,#996,#997,#998,#999,#1000,#1001,
#1002,#1003,#1004));
#165=EDGE_LOOP('',(#1005,#1006));
#166=EDGE_LOOP('',(#1007,#1008,#1009,#1010));
#167=EDGE_LOOP('',(#1011,#1012,#1013,#1014,#1015,#1016));
#168=EDGE_LOOP('',(#1017,#1018,#1019,#1020));
#169=EDGE_LOOP('',(#1021,#1022,#1023,#1024,#1025,#1026));
#170=EDGE_LOOP('',(#1027,#1028,#1029,#1030));
#171=EDGE_LOOP('',(#1031,#1032,#1033,#1034));
#172=EDGE_LOOP('',(#1035,#1036,#1037,#1038));
#173=EDGE_LOOP('',(#1039,#1040,#1041,#1042));
#174=EDGE_LOOP('',(#1043,#1044,#1045,#1046));
#175=EDGE_LOOP('',(#1047,#1048,#1049,#1050));
#176=EDGE_LOOP('',(#1051,#1052,#1053,#1054));
#177=EDGE_LOOP('',(#1055,#1056,#1057,#1058));
#178=EDGE_LOOP('',(#1059,#1060,#1061,#1062));
#179=EDGE_LOOP('',(#1063,#1064,#1065,#1066,#1067,#1068));
#180=EDGE_LOOP('',(#1069,#1070,#1071,#1072,#1073,#1074));
#181=EDGE_LOOP('',(#1075,#1076,#1077,#1078,#1079,#1080));
#182=EDGE_LOOP('',(#1081,#1082,#1083,#1084));
#183=EDGE_LOOP('',(#1085,#1086,#1087,#1088));
#184=EDGE_LOOP('',(#1089,#1090,#1091,#1092));
#185=EDGE_LOOP('',(#1093,#1094,#1095,#1096));
#186=EDGE_LOOP('',(#1097,#1098,#1099,#1100));
#187=EDGE_LOOP('',(#1101,#1102,#1103,#1104));
#188=EDGE_LOOP('',(#1105,#1106,#1107,#1108));
#189=EDGE_LOOP('',(#1109,#1110,#1111,#1112));
#190=EDGE_LOOP('',(#1113,#1114,#1115,#1116));
#191=EDGE_LOOP('',(#1117,#1118,#1119,#1120));
#192=EDGE_LOOP('',(#1121,#1122,#1123,#1124));
#193=EDGE_LOOP('',(#1125,#1126,#1127,#1128));
#194=EDGE_LOOP('',(#1129,#1130,#1131,#1132));
#195=EDGE_LOOP('',(#1133,#1134,#1135,#1136));
#196=EDGE_LOOP('',(#1137,#1138,#1139,#1140));
#197=EDGE_LOOP('',(#1141,#1142,#1143,#1144));
#198=EDGE_LOOP('',(#1145,#1146,#1147,#1148));
#199=EDGE_LOOP('',(#1149,#1150,#1151,#1152,#1153,#1154,#1155,#1156));
#200=EDGE_LOOP('',(#1157,#1158,#1159,#1160,#1161,#1162));
#201=EDGE_LOOP('',(#1163,#1164,#1165,#1166,#1167,#1168));
#202=EDGE_LOOP('',(#1169,#1170));
#203=EDGE_LOOP('',(#1171,#1172,#1173));
#204=EDGE_LOOP('',(#1174));
#205=EDGE_LOOP('',(#1175,#1176,#1177));
#206=EDGE_LOOP('',(#1178));
#207=EDGE_LOOP('',(#1179));
#208=EDGE_LOOP('',(#1180));
#209=EDGE_LOOP('',(#1181,#1182,#1183,#1184,#1185,#1186));
#210=EDGE_LOOP('',(#1187,#1188,#1189,#1190,#1191,#1192));
#211=LINE('',#1744,#345);
#212=LINE('',#1749,#346);
#213=LINE('',#1751,#347);
#214=LINE('',#1753,#348);
#215=LINE('',#1755,#349);
#216=LINE('',#1757,#350);
#217=LINE('',#1758,#351);
#218=LINE('',#1761,#352);
#219=LINE('',#1763,#353);
#220=LINE('',#1765,#354);
#221=LINE('',#1767,#355);
#222=LINE('',#1768,#356);
#223=LINE('',#1772,#357);
#224=LINE('',#1774,#358);
#225=LINE('',#1776,#359);
#226=LINE('',#1777,#360);
#227=LINE('',#1780,#361);
#228=LINE('',#1782,#362);
#229=LINE('',#1783,#363);
#230=LINE('',#1785,#364);
#231=LINE('',#1787,#365);
#232=LINE('',#1788,#366);
#233=LINE('',#1790,#367);
#234=LINE('',#1792,#368);
#235=LINE('',#1793,#369);
#236=LINE('',#1796,#370);
#237=LINE('',#1797,#371);
#238=LINE('',#1799,#372);
#239=LINE('',#1803,#373);
#240=LINE('',#1805,#374);
#241=LINE('',#1807,#375);
#242=LINE('',#1808,#376);
#243=LINE('',#1812,#377);
#244=LINE('',#1816,#378);
#245=LINE('',#1820,#379);
#246=LINE('',#1822,#380);
#247=LINE('',#1824,#381);
#248=LINE('',#1826,#382);
#249=LINE('',#1827,#383);
#250=LINE('',#1832,#384);
#251=LINE('',#1836,#385);
#252=LINE('',#1840,#386);
#253=LINE('',#1843,#387);
#254=LINE('',#1846,#388);
#255=LINE('',#1848,#389);
#256=LINE('',#1852,#390);
#257=LINE('',#1856,#391);
#258=LINE('',#1858,#392);
#259=LINE('',#1860,#393);
#260=LINE('',#1864,#394);
#261=LINE('',#1868,#395);
#262=LINE('',#1870,#396);
#263=LINE('',#1872,#397);
#264=LINE('',#1876,#398);
#265=LINE('',#1880,#399);
#266=LINE('',#1881,#400);
#267=LINE('',#1884,#401);
#268=LINE('',#1889,#402);
#269=LINE('',#1890,#403);
#270=LINE('',#1897,#404);
#271=LINE('',#1898,#405);
#272=LINE('',#1907,#406);
#273=LINE('',#1909,#407);
#274=LINE('',#1910,#408);
#275=LINE('',#1913,#409);
#276=LINE('',#1915,#410);
#277=LINE('',#1917,#411);
#278=LINE('',#1918,#412);
#279=LINE('',#1921,#413);
#280=LINE('',#1923,#414);
#281=LINE('',#1924,#415);
#282=LINE('',#1927,#416);
#283=LINE('',#1929,#417);
#284=LINE('',#1931,#418);
#285=LINE('',#1932,#419);
#286=LINE('',#1935,#420);
#287=LINE('',#1936,#421);
#288=LINE('',#1939,#422);
#289=LINE('',#1940,#423);
#290=LINE('',#1944,#424);
#291=LINE('',#1950,#425);
#292=LINE('',#1958,#426);
#293=LINE('',#1961,#427);
#294=LINE('',#1963,#428);
#295=LINE('',#1964,#429);
#296=LINE('',#1970,#430);
#297=LINE('',#1973,#431);
#298=LINE('',#1975,#432);
#299=LINE('',#1976,#433);
#300=LINE('',#1977,#434);
#301=LINE('',#1978,#435);
#302=LINE('',#1983,#436);
#303=LINE('',#1984,#437);
#304=LINE('',#1986,#438);
#305=LINE('',#1990,#439);
#306=LINE('',#1993,#440);
#307=LINE('',#1994,#441);
#308=LINE('',#1999,#442);
#309=LINE('',#2000,#443);
#310=LINE('',#2002,#444);
#311=LINE('',#2006,#445);
#312=LINE('',#2011,#446);
#313=LINE('',#2012,#447);
#314=LINE('',#2014,#448);
#315=LINE('',#2018,#449);
#316=LINE('',#2023,#450);
#317=LINE('',#2024,#451);
#318=LINE('',#2026,#452);
#319=LINE('',#2030,#453);
#320=LINE('',#2032,#454);
#321=LINE('',#2034,#455);
#322=LINE('',#2037,#456);
#323=LINE('',#2041,#457);
#324=LINE('',#2045,#458);
#325=LINE('',#2050,#459);
#326=LINE('',#2051,#460);
#327=LINE('',#2052,#461);
#328=LINE('',#2055,#462);
#329=LINE('',#2056,#463);
#330=LINE('',#2061,#464);
#331=LINE('',#2066,#465);
#332=LINE('',#2067,#466);
#333=LINE('',#2068,#467);
#334=LINE('',#2071,#468);
#335=LINE('',#2072,#469);
#336=LINE('',#2078,#470);
#337=LINE('',#2079,#471);
#338=LINE('',#2080,#472);
#339=LINE('',#2084,#473);
#340=LINE('',#2087,#474);
#341=LINE('',#2088,#475);
#342=LINE('',#2094,#476);
#343=LINE('',#2097,#477);
#344=LINE('',#2098,#478);
#345=VECTOR('',#1393,1.25);
#346=VECTOR('',#1398,10.);
#347=VECTOR('',#1399,10.);
#348=VECTOR('',#1400,10.);
#349=VECTOR('',#1401,10.);
#350=VECTOR('',#1402,10.);
#351=VECTOR('',#1403,10.);
#352=VECTOR('',#1406,10.);
#353=VECTOR('',#1407,10.);
#354=VECTOR('',#1408,10.);
#355=VECTOR('',#1409,1.5);
#356=VECTOR('',#1410,10.);
#357=VECTOR('',#1413,10.);
#358=VECTOR('',#1414,10.);
#359=VECTOR('',#1415,10.);
#360=VECTOR('',#1416,10.);
#361=VECTOR('',#1419,10.);
#362=VECTOR('',#1420,10.);
#363=VECTOR('',#1421,10.);
#364=VECTOR('',#1424,10.);
#365=VECTOR('',#1425,10.);
#366=VECTOR('',#1426,10.);
#367=VECTOR('',#1429,10.);
#368=VECTOR('',#1430,10.);
#369=VECTOR('',#1431,10.);
#370=VECTOR('',#1434,10.);
#371=VECTOR('',#1435,10.);
#372=VECTOR('',#1438,10.);
#373=VECTOR('',#1443,10.);
#374=VECTOR('',#1444,1.5);
#375=VECTOR('',#1445,10.);
#376=VECTOR('',#1446,10.);
#377=VECTOR('',#1449,10.);
#378=VECTOR('',#1452,10.);
#379=VECTOR('',#1457,10.);
#380=VECTOR('',#1458,10.);
#381=VECTOR('',#1459,10.);
#382=VECTOR('',#1460,10.);
#383=VECTOR('',#1461,10.);
#384=VECTOR('',#1466,10.);
#385=VECTOR('',#1469,10.);
#386=VECTOR('',#1472,10.);
#387=VECTOR('',#1475,10.);
#388=VECTOR('',#1478,10.);
#389=VECTOR('',#1479,10.);
#390=VECTOR('',#1482,10.);
#391=VECTOR('',#1485,10.);
#392=VECTOR('',#1486,10.);
#393=VECTOR('',#1487,10.);
#394=VECTOR('',#1490,10.);
#395=VECTOR('',#1493,10.);
#396=VECTOR('',#1494,10.);
#397=VECTOR('',#1495,10.);
#398=VECTOR('',#1498,10.);
#399=VECTOR('',#1501,10.);
#400=VECTOR('',#1502,10.);
#401=VECTOR('',#1505,10.);
#402=VECTOR('',#1508,10.);
#403=VECTOR('',#1509,10.);
#404=VECTOR('',#1514,10.);
#405=VECTOR('',#1515,10.);
#406=VECTOR('',#1524,10.);
#407=VECTOR('',#1525,10.);
#408=VECTOR('',#1526,10.);
#409=VECTOR('',#1529,10.);
#410=VECTOR('',#1530,10.);
#411=VECTOR('',#1531,10.);
#412=VECTOR('',#1532,1.5);
#413=VECTOR('',#1535,10.);
#414=VECTOR('',#1536,10.);
#415=VECTOR('',#1537,10.);
#416=VECTOR('',#1540,10.);
#417=VECTOR('',#1541,10.);
#418=VECTOR('',#1542,10.);
#419=VECTOR('',#1543,1.5);
#420=VECTOR('',#1546,10.);
#421=VECTOR('',#1547,10.);
#422=VECTOR('',#1550,10.);
#423=VECTOR('',#1551,10.);
#424=VECTOR('',#1554,10.);
#425=VECTOR('',#1561,10.);
#426=VECTOR('',#1570,10.);
#427=VECTOR('',#1573,10.);
#428=VECTOR('',#1576,10.);
#429=VECTOR('',#1577,10.);
#430=VECTOR('',#1582,10.);
#431=VECTOR('',#1585,10.);
#432=VECTOR('',#1588,10.);
#433=VECTOR('',#1589,10.);
#434=VECTOR('',#1590,10.);
#435=VECTOR('',#1591,10.);
#436=VECTOR('',#1596,1.5);
#437=VECTOR('',#1597,1.5);
#438=VECTOR('',#1600,10.);
#439=VECTOR('',#1605,1.5);
#440=VECTOR('',#1608,1.5);
#441=VECTOR('',#1609,10.);
#442=VECTOR('',#1614,1.5);
#443=VECTOR('',#1615,1.5);
#444=VECTOR('',#1618,10.);
#445=VECTOR('',#1623,1.5);
#446=VECTOR('',#1628,1.5);
#447=VECTOR('',#1629,1.5);
#448=VECTOR('',#1632,10.);
#449=VECTOR('',#1637,1.5);
#450=VECTOR('',#1642,1.5);
#451=VECTOR('',#1643,1.5);
#452=VECTOR('',#1646,10.);
#453=VECTOR('',#1653,10.);
#454=VECTOR('',#1656,10.);
#455=VECTOR('',#1659,10.);
#456=VECTOR('',#1662,1.5);
#457=VECTOR('',#1667,1.5);
#458=VECTOR('',#1672,1.5);
#459=VECTOR('',#1677,10.);
#460=VECTOR('',#1678,10.);
#461=VECTOR('',#1679,10.);
#462=VECTOR('',#1682,10.);
#463=VECTOR('',#1683,10.);
#464=VECTOR('',#1690,1.5);
#465=VECTOR('',#1695,10.);
#466=VECTOR('',#1696,10.);
#467=VECTOR('',#1697,10.);
#468=VECTOR('',#1700,10.);
#469=VECTOR('',#1701,10.);
#470=VECTOR('',#1708,10.);
#471=VECTOR('',#1709,10.);
#472=VECTOR('',#1710,10.);
#473=VECTOR('',#1715,10.);
#474=VECTOR('',#1718,10.);
#475=VECTOR('',#1719,10.);
#476=VECTOR('',#1728,10.);
#477=VECTOR('',#1731,10.);
#478=VECTOR('',#1732,10.);
#479=CIRCLE('',#1280,1.25);
#480=CIRCLE('',#1281,1.25);
#481=CIRCLE('',#1293,3.);
#482=CIRCLE('',#1294,3.);
#483=CIRCLE('',#1297,4.49999999999999);
#484=CIRCLE('',#1298,4.49999999999999);
#485=CIRCLE('',#1299,4.49999999999999);
#486=CIRCLE('',#1300,4.49999999999999);
#487=CIRCLE('',#1301,1.5);
#488=CIRCLE('',#1302,1.5);
#489=CIRCLE('',#1303,1.5);
#490=CIRCLE('',#1304,1.5);
#491=CIRCLE('',#1305,1.5);
#492=CIRCLE('',#1306,1.5);
#493=CIRCLE('',#1307,1.5);
#494=CIRCLE('',#1308,1.5);
#495=CIRCLE('',#1309,16.);
#496=CIRCLE('',#1310,1.55);
#497=CIRCLE('',#1311,16.);
#498=CIRCLE('',#1312,1.55);
#499=CIRCLE('',#1313,1.55);
#500=CIRCLE('',#1314,1.55);
#501=CIRCLE('',#1322,5.5000000372529);
#502=CIRCLE('',#1323,5.5000000372529);
#503=CIRCLE('',#1325,5.5000000372529);
#504=CIRCLE('',#1326,5.5000000372529);
#505=CIRCLE('',#1328,2.5000000372529);
#506=CIRCLE('',#1329,2.5000000372529);
#507=CIRCLE('',#1332,5.5000000372529);
#508=CIRCLE('',#1333,5.5000000372529);
#509=CIRCLE('',#1336,1.5);
#510=CIRCLE('',#1339,1.5);
#511=CIRCLE('',#1342,1.5);
#512=CIRCLE('',#1345,1.5);
#513=CIRCLE('',#1347,1.5);
#514=CIRCLE('',#1350,1.5);
#515=CIRCLE('',#1352,1.5);
#516=CIRCLE('',#1355,1.5);
#517=CIRCLE('',#1360,1.55);
#518=CIRCLE('',#1362,1.55);
#519=CIRCLE('',#1364,1.55);
#520=CIRCLE('',#1368,16.);
#521=CIRCLE('',#1370,1.55);
#522=CIRCLE('',#1374,16.);
#523=CIRCLE('',#1377,4.49999999999999);
#524=CIRCLE('',#1380,4.49999999999999);
#525=CIRCLE('',#1382,4.49999999999999);
#526=CIRCLE('',#1385,4.49999999999999);
#527=VERTEX_POINT('',#1741);
#528=VERTEX_POINT('',#1743);
#529=VERTEX_POINT('',#1747);
#530=VERTEX_POINT('',#1748);
#531=VERTEX_POINT('',#1750);
#532=VERTEX_POINT('',#1752);
#533=VERTEX_POINT('',#1754);
#534=VERTEX_POINT('',#1756);
#535=VERTEX_POINT('',#1760);
#536=VERTEX_POINT('',#1762);
#537=VERTEX_POINT('',#1764);
#538=VERTEX_POINT('',#1766);
#539=VERTEX_POINT('',#1770);
#540=VERTEX_POINT('',#1771);
#541=VERTEX_POINT('',#1773);
#542=VERTEX_POINT('',#1775);
#543=VERTEX_POINT('',#1779);
#544=VERTEX_POINT('',#1781);
#545=VERTEX_POINT('',#1786);
#546=VERTEX_POINT('',#1791);
#547=VERTEX_POINT('',#1795);
#548=VERTEX_POINT('',#1802);
#549=VERTEX_POINT('',#1804);
#550=VERTEX_POINT('',#1806);
#551=VERTEX_POINT('',#1810);
#552=VERTEX_POINT('',#1811);
#553=VERTEX_POINT('',#1813);
#554=VERTEX_POINT('',#1815);
#555=VERTEX_POINT('',#1819);
#556=VERTEX_POINT('',#1821);
#557=VERTEX_POINT('',#1823);
#558=VERTEX_POINT('',#1825);
#559=VERTEX_POINT('',#1829);
#560=VERTEX_POINT('',#1831);
#561=VERTEX_POINT('',#1833);
#562=VERTEX_POINT('',#1835);
#563=VERTEX_POINT('',#1837);
#564=VERTEX_POINT('',#1839);
#565=VERTEX_POINT('',#1842);
#566=VERTEX_POINT('',#1845);
#567=VERTEX_POINT('',#1847);
#568=VERTEX_POINT('',#1849);
#569=VERTEX_POINT('',#1851);
#570=VERTEX_POINT('',#1853);
#571=VERTEX_POINT('',#1855);
#572=VERTEX_POINT('',#1857);
#573=VERTEX_POINT('',#1859);
#574=VERTEX_POINT('',#1861);
#575=VERTEX_POINT('',#1863);
#576=VERTEX_POINT('',#1865);
#577=VERTEX_POINT('',#1867);
#578=VERTEX_POINT('',#1869);
#579=VERTEX_POINT('',#1871);
#580=VERTEX_POINT('',#1873);
#581=VERTEX_POINT('',#1875);
#582=VERTEX_POINT('',#1877);
#583=VERTEX_POINT('',#1879);
#584=VERTEX_POINT('',#1882);
#585=VERTEX_POINT('',#1885);
#586=VERTEX_POINT('',#1886);
#587=VERTEX_POINT('',#1888);
#588=VERTEX_POINT('',#1891);
#589=VERTEX_POINT('',#1893);
#590=VERTEX_POINT('',#1894);
#591=VERTEX_POINT('',#1896);
#592=VERTEX_POINT('',#1899);
#593=VERTEX_POINT('',#1901);
#594=VERTEX_POINT('',#1903);
#595=VERTEX_POINT('',#1906);
#596=VERTEX_POINT('',#1908);
#597=VERTEX_POINT('',#1912);
#598=VERTEX_POINT('',#1914);
#599=VERTEX_POINT('',#1916);
#600=VERTEX_POINT('',#1920);
#601=VERTEX_POINT('',#1922);
#602=VERTEX_POINT('',#1926);
#603=VERTEX_POINT('',#1928);
#604=VERTEX_POINT('',#1930);
#605=VERTEX_POINT('',#1934);
#606=VERTEX_POINT('',#1938);
#607=VERTEX_POINT('',#1942);
#608=VERTEX_POINT('',#1943);
#609=VERTEX_POINT('',#1948);
#610=VERTEX_POINT('',#1949);
#611=VERTEX_POINT('',#1954);
#612=VERTEX_POINT('',#1955);
#613=VERTEX_POINT('',#1957);
#614=VERTEX_POINT('',#1959);
#615=VERTEX_POINT('',#1966);
#616=VERTEX_POINT('',#1967);
#617=VERTEX_POINT('',#1969);
#618=VERTEX_POINT('',#1971);
#619=VERTEX_POINT('',#1980);
#620=VERTEX_POINT('',#1981);
#621=VERTEX_POINT('',#1988);
#622=VERTEX_POINT('',#1992);
#623=VERTEX_POINT('',#1996);
#624=VERTEX_POINT('',#1997);
#625=VERTEX_POINT('',#2004);
#626=VERTEX_POINT('',#2008);
#627=VERTEX_POINT('',#2009);
#628=VERTEX_POINT('',#2016);
#629=VERTEX_POINT('',#2020);
#630=VERTEX_POINT('',#2021);
#631=VERTEX_POINT('',#2036);
#632=VERTEX_POINT('',#2040);
#633=VERTEX_POINT('',#2044);
#634=VERTEX_POINT('',#2048);
#635=VERTEX_POINT('',#2049);
#636=VERTEX_POINT('',#2054);
#637=VERTEX_POINT('',#2060);
#638=VERTEX_POINT('',#2064);
#639=VERTEX_POINT('',#2065);
#640=VERTEX_POINT('',#2070);
#641=VERTEX_POINT('',#2076);
#642=VERTEX_POINT('',#2077);
#643=VERTEX_POINT('',#2082);
#644=VERTEX_POINT('',#2086);
#645=VERTEX_POINT('',#2092);
#646=VERTEX_POINT('',#2096);
#647=EDGE_CURVE('',#527,#527,#479,.T.);
#648=EDGE_CURVE('',#527,#528,#211,.T.);
#649=EDGE_CURVE('',#528,#528,#480,.T.);
#650=EDGE_CURVE('',#529,#530,#212,.T.);
#651=EDGE_CURVE('',#529,#531,#213,.T.);
#652=EDGE_CURVE('',#532,#531,#214,.T.);
#653=EDGE_CURVE('',#533,#532,#215,.F.);
#654=EDGE_CURVE('',#533,#534,#216,.T.);
#655=EDGE_CURVE('',#534,#530,#217,.T.);
#656=EDGE_CURVE('',#530,#535,#218,.T.);
#657=EDGE_CURVE('',#536,#535,#219,.T.);
#658=EDGE_CURVE('',#537,#536,#220,.T.);
#659=EDGE_CURVE('',#538,#537,#221,.T.);
#660=EDGE_CURVE('',#538,#529,#222,.T.);
#661=EDGE_CURVE('',#539,#540,#223,.T.);
#662=EDGE_CURVE('',#539,#541,#224,.T.);
#663=EDGE_CURVE('',#542,#541,#225,.T.);
#664=EDGE_CURVE('',#540,#542,#226,.T.);
#665=EDGE_CURVE('',#540,#543,#227,.T.);
#666=EDGE_CURVE('',#544,#540,#228,.F.);
#667=EDGE_CURVE('',#543,#544,#229,.F.);
#668=EDGE_CURVE('',#535,#542,#230,.T.);
#669=EDGE_CURVE('',#535,#545,#231,.T.);
#670=EDGE_CURVE('',#542,#545,#232,.F.);
#671=EDGE_CURVE('',#543,#532,#233,.T.);
#672=EDGE_CURVE('',#546,#544,#234,.T.);
#673=EDGE_CURVE('',#533,#546,#235,.T.);
#674=EDGE_CURVE('',#547,#546,#236,.T.);
#675=EDGE_CURVE('',#534,#547,#237,.T.);
#676=EDGE_CURVE('',#545,#547,#238,.T.);
#677=EDGE_CURVE('',#531,#548,#239,.T.);
#678=EDGE_CURVE('',#549,#548,#240,.T.);
#679=EDGE_CURVE('',#550,#549,#241,.T.);
#680=EDGE_CURVE('',#543,#550,#242,.T.);
#681=EDGE_CURVE('',#551,#552,#243,.T.);
#682=EDGE_CURVE('',#553,#551,#481,.T.);
#683=EDGE_CURVE('',#554,#553,#244,.T.);
#684=EDGE_CURVE('',#552,#554,#482,.T.);
#685=EDGE_CURVE('',#555,#551,#245,.T.);
#686=EDGE_CURVE('',#556,#555,#246,.T.);
#687=EDGE_CURVE('',#556,#557,#247,.T.);
#688=EDGE_CURVE('',#557,#558,#248,.T.);
#689=EDGE_CURVE('',#553,#558,#249,.T.);
#690=EDGE_CURVE('',#558,#559,#483,.T.);
#691=EDGE_CURVE('',#559,#560,#250,.T.);
#692=EDGE_CURVE('',#560,#561,#484,.T.);
#693=EDGE_CURVE('',#561,#562,#251,.T.);
#694=EDGE_CURVE('',#562,#563,#485,.T.);
#695=EDGE_CURVE('',#563,#564,#252,.T.);
#696=EDGE_CURVE('',#564,#555,#486,.T.);
#697=EDGE_CURVE('',#552,#565,#253,.T.);
#698=EDGE_CURVE('',#537,#565,#487,.T.);
#699=EDGE_CURVE('',#536,#566,#254,.T.);
#700=EDGE_CURVE('',#566,#567,#255,.T.);
#701=EDGE_CURVE('',#568,#567,#488,.T.);
#702=EDGE_CURVE('',#568,#569,#256,.T.);
#703=EDGE_CURVE('',#570,#569,#489,.T.);
#704=EDGE_CURVE('',#570,#571,#257,.T.);
#705=EDGE_CURVE('',#571,#572,#258,.T.);
#706=EDGE_CURVE('',#572,#573,#259,.T.);
#707=EDGE_CURVE('',#574,#573,#490,.T.);
#708=EDGE_CURVE('',#574,#575,#260,.T.);
#709=EDGE_CURVE('',#576,#575,#491,.T.);
#710=EDGE_CURVE('',#576,#577,#261,.T.);
#711=EDGE_CURVE('',#577,#578,#262,.T.);
#712=EDGE_CURVE('',#578,#579,#263,.T.);
#713=EDGE_CURVE('',#580,#579,#492,.T.);
#714=EDGE_CURVE('',#580,#581,#264,.T.);
#715=EDGE_CURVE('',#582,#581,#493,.T.);
#716=EDGE_CURVE('',#582,#583,#265,.T.);
#717=EDGE_CURVE('',#583,#550,#266,.T.);
#718=EDGE_CURVE('',#584,#549,#494,.T.);
#719=EDGE_CURVE('',#584,#554,#267,.T.);
#720=EDGE_CURVE('',#585,#586,#495,.T.);
#721=EDGE_CURVE('',#586,#587,#268,.T.);
#722=EDGE_CURVE('',#587,#585,#269,.T.);
#723=EDGE_CURVE('',#588,#588,#496,.F.);
#724=EDGE_CURVE('',#589,#590,#497,.T.);
#725=EDGE_CURVE('',#590,#591,#270,.T.);
#726=EDGE_CURVE('',#591,#589,#271,.T.);
#727=EDGE_CURVE('',#592,#592,#498,.F.);
#728=EDGE_CURVE('',#593,#593,#499,.F.);
#729=EDGE_CURVE('',#594,#594,#500,.F.);
#730=EDGE_CURVE('',#571,#595,#272,.T.);
#731=EDGE_CURVE('',#595,#596,#273,.T.);
#732=EDGE_CURVE('',#596,#572,#274,.T.);
#733=EDGE_CURVE('',#597,#596,#275,.T.);
#734=EDGE_CURVE('',#598,#597,#276,.T.);
#735=EDGE_CURVE('',#598,#599,#277,.T.);
#736=EDGE_CURVE('',#573,#599,#278,.T.);
#737=EDGE_CURVE('',#577,#600,#279,.T.);
#738=EDGE_CURVE('',#600,#601,#280,.T.);
#739=EDGE_CURVE('',#601,#578,#281,.T.);
#740=EDGE_CURVE('',#602,#601,#282,.T.);
#741=EDGE_CURVE('',#603,#602,#283,.T.);
#742=EDGE_CURVE('',#604,#603,#284,.T.);
#743=EDGE_CURVE('',#579,#604,#285,.T.);
#744=EDGE_CURVE('',#583,#605,#286,.T.);
#745=EDGE_CURVE('',#605,#539,#287,.T.);
#746=EDGE_CURVE('',#541,#606,#288,.T.);
#747=EDGE_CURVE('',#606,#566,#289,.T.);
#748=EDGE_CURVE('',#607,#608,#290,.T.);
#749=EDGE_CURVE('',#608,#598,#501,.T.);
#750=EDGE_CURVE('',#607,#597,#502,.T.);
#751=EDGE_CURVE('',#609,#610,#291,.T.);
#752=EDGE_CURVE('',#610,#603,#503,.T.);
#753=EDGE_CURVE('',#609,#602,#504,.T.);
#754=EDGE_CURVE('',#611,#612,#505,.T.);
#755=EDGE_CURVE('',#612,#613,#292,.T.);
#756=EDGE_CURVE('',#614,#613,#506,.T.);
#757=EDGE_CURVE('',#611,#614,#293,.T.);
#758=EDGE_CURVE('',#612,#611,#294,.T.);
#759=EDGE_CURVE('',#613,#614,#295,.T.);
#760=EDGE_CURVE('',#615,#616,#507,.T.);
#761=EDGE_CURVE('',#616,#617,#296,.T.);
#762=EDGE_CURVE('',#618,#617,#508,.T.);
#763=EDGE_CURVE('',#615,#618,#297,.T.);
#764=EDGE_CURVE('',#605,#609,#298,.T.);
#765=EDGE_CURVE('',#600,#607,#299,.T.);
#766=EDGE_CURVE('',#595,#618,#300,.T.);
#767=EDGE_CURVE('',#617,#606,#301,.T.);
#768=EDGE_CURVE('',#619,#620,#509,.F.);
#769=EDGE_CURVE('',#619,#568,#302,.T.);
#770=EDGE_CURVE('',#567,#620,#303,.T.);
#771=EDGE_CURVE('',#620,#616,#304,.T.);
#772=EDGE_CURVE('',#538,#621,#510,.F.);
#773=EDGE_CURVE('',#565,#621,#305,.T.);
#774=EDGE_CURVE('',#622,#584,#306,.T.);
#775=EDGE_CURVE('',#622,#621,#307,.T.);
#776=EDGE_CURVE('',#623,#624,#511,.F.);
#777=EDGE_CURVE('',#623,#570,#308,.T.);
#778=EDGE_CURVE('',#569,#624,#309,.T.);
#779=EDGE_CURVE('',#619,#624,#310,.T.);
#780=EDGE_CURVE('',#625,#599,#512,.F.);
#781=EDGE_CURVE('',#625,#574,#311,.T.);
#782=EDGE_CURVE('',#626,#627,#513,.F.);
#783=EDGE_CURVE('',#626,#576,#312,.T.);
#784=EDGE_CURVE('',#575,#627,#313,.T.);
#785=EDGE_CURVE('',#625,#627,#314,.T.);
#786=EDGE_CURVE('',#628,#604,#514,.F.);
#787=EDGE_CURVE('',#628,#580,#315,.T.);
#788=EDGE_CURVE('',#629,#630,#515,.F.);
#789=EDGE_CURVE('',#629,#582,#316,.T.);
#790=EDGE_CURVE('',#581,#630,#317,.T.);
#791=EDGE_CURVE('',#628,#630,#318,.T.);
#792=EDGE_CURVE('',#622,#548,#516,.F.);
#793=EDGE_CURVE('',#610,#629,#319,.T.);
#794=EDGE_CURVE('',#626,#608,#320,.T.);
#795=EDGE_CURVE('',#615,#623,#321,.T.);
#796=EDGE_CURVE('',#594,#631,#322,.T.);
#797=EDGE_CURVE('',#631,#631,#517,.T.);
#798=EDGE_CURVE('',#593,#632,#323,.T.);
#799=EDGE_CURVE('',#632,#632,#518,.T.);
#800=EDGE_CURVE('',#592,#633,#324,.T.);
#801=EDGE_CURVE('',#633,#633,#519,.T.);
#802=EDGE_CURVE('',#634,#635,#325,.T.);
#803=EDGE_CURVE('',#634,#589,#326,.T.);
#804=EDGE_CURVE('',#635,#591,#327,.T.);
#805=EDGE_CURVE('',#635,#636,#328,.T.);
#806=EDGE_CURVE('',#636,#590,#329,.T.);
#807=EDGE_CURVE('',#634,#636,#520,.T.);
#808=EDGE_CURVE('',#588,#637,#330,.T.);
#809=EDGE_CURVE('',#637,#637,#521,.T.);
#810=EDGE_CURVE('',#638,#639,#331,.T.);
#811=EDGE_CURVE('',#638,#585,#332,.T.);
#812=EDGE_CURVE('',#639,#587,#333,.T.);
#813=EDGE_CURVE('',#639,#640,#334,.T.);
#814=EDGE_CURVE('',#640,#586,#335,.T.);
#815=EDGE_CURVE('',#638,#640,#522,.T.);
#816=EDGE_CURVE('',#641,#642,#336,.T.);
#817=EDGE_CURVE('',#642,#562,#337,.T.);
#818=EDGE_CURVE('',#641,#561,#338,.T.);
#819=EDGE_CURVE('',#643,#641,#523,.T.);
#820=EDGE_CURVE('',#643,#560,#339,.T.);
#821=EDGE_CURVE('',#644,#643,#340,.T.);
#822=EDGE_CURVE('',#644,#559,#341,.T.);
#823=EDGE_CURVE('',#557,#644,#524,.T.);
#824=EDGE_CURVE('',#645,#556,#525,.T.);
#825=EDGE_CURVE('',#645,#564,#342,.T.);
#826=EDGE_CURVE('',#646,#645,#343,.T.);
#827=EDGE_CURVE('',#646,#563,#344,.T.);
#828=EDGE_CURVE('',#642,#646,#526,.T.);
#829=ORIENTED_EDGE('',*,*,#647,.F.);
#830=ORIENTED_EDGE('',*,*,#648,.T.);
#831=ORIENTED_EDGE('',*,*,#649,.F.);
#832=ORIENTED_EDGE('',*,*,#648,.F.);
#833=ORIENTED_EDGE('',*,*,#650,.F.);
#834=ORIENTED_EDGE('',*,*,#651,.T.);
#835=ORIENTED_EDGE('',*,*,#652,.F.);
#836=ORIENTED_EDGE('',*,*,#653,.F.);
#837=ORIENTED_EDGE('',*,*,#654,.T.);
#838=ORIENTED_EDGE('',*,*,#655,.T.);
#839=ORIENTED_EDGE('',*,*,#650,.T.);
#840=ORIENTED_EDGE('',*,*,#656,.T.);
#841=ORIENTED_EDGE('',*,*,#657,.F.);
#842=ORIENTED_EDGE('',*,*,#658,.F.);
#843=ORIENTED_EDGE('',*,*,#659,.F.);
#844=ORIENTED_EDGE('',*,*,#660,.T.);
#845=ORIENTED_EDGE('',*,*,#661,.F.);
#846=ORIENTED_EDGE('',*,*,#662,.T.);
#847=ORIENTED_EDGE('',*,*,#663,.F.);
#848=ORIENTED_EDGE('',*,*,#664,.F.);
#849=ORIENTED_EDGE('',*,*,#665,.F.);
#850=ORIENTED_EDGE('',*,*,#666,.F.);
#851=ORIENTED_EDGE('',*,*,#667,.F.);
#852=ORIENTED_EDGE('',*,*,#668,.F.);
#853=ORIENTED_EDGE('',*,*,#669,.T.);
#854=ORIENTED_EDGE('',*,*,#670,.F.);
#855=ORIENTED_EDGE('',*,*,#671,.F.);
#856=ORIENTED_EDGE('',*,*,#667,.T.);
#857=ORIENTED_EDGE('',*,*,#672,.F.);
#858=ORIENTED_EDGE('',*,*,#673,.F.);
#859=ORIENTED_EDGE('',*,*,#653,.T.);
#860=ORIENTED_EDGE('',*,*,#654,.F.);
#861=ORIENTED_EDGE('',*,*,#673,.T.);
#862=ORIENTED_EDGE('',*,*,#674,.F.);
#863=ORIENTED_EDGE('',*,*,#675,.F.);
#864=ORIENTED_EDGE('',*,*,#649,.T.);
#865=ORIENTED_EDGE('',*,*,#675,.T.);
#866=ORIENTED_EDGE('',*,*,#676,.F.);
#867=ORIENTED_EDGE('',*,*,#669,.F.);
#868=ORIENTED_EDGE('',*,*,#656,.F.);
#869=ORIENTED_EDGE('',*,*,#655,.F.);
#870=ORIENTED_EDGE('',*,*,#664,.T.);
#871=ORIENTED_EDGE('',*,*,#670,.T.);
#872=ORIENTED_EDGE('',*,*,#676,.T.);
#873=ORIENTED_EDGE('',*,*,#674,.T.);
#874=ORIENTED_EDGE('',*,*,#672,.T.);
#875=ORIENTED_EDGE('',*,*,#666,.T.);
#876=ORIENTED_EDGE('',*,*,#652,.T.);
#877=ORIENTED_EDGE('',*,*,#677,.T.);
#878=ORIENTED_EDGE('',*,*,#678,.F.);
#879=ORIENTED_EDGE('',*,*,#679,.F.);
#880=ORIENTED_EDGE('',*,*,#680,.F.);
#881=ORIENTED_EDGE('',*,*,#671,.T.);
#882=ORIENTED_EDGE('',*,*,#681,.F.);
#883=ORIENTED_EDGE('',*,*,#682,.F.);
#884=ORIENTED_EDGE('',*,*,#683,.F.);
#885=ORIENTED_EDGE('',*,*,#684,.F.);
#886=ORIENTED_EDGE('',*,*,#682,.T.);
#887=ORIENTED_EDGE('',*,*,#685,.F.);
#888=ORIENTED_EDGE('',*,*,#686,.F.);
#889=ORIENTED_EDGE('',*,*,#687,.T.);
#890=ORIENTED_EDGE('',*,*,#688,.T.);
#891=ORIENTED_EDGE('',*,*,#689,.F.);
#892=ORIENTED_EDGE('',*,*,#683,.T.);
#893=ORIENTED_EDGE('',*,*,#689,.T.);
#894=ORIENTED_EDGE('',*,*,#690,.T.);
#895=ORIENTED_EDGE('',*,*,#691,.T.);
#896=ORIENTED_EDGE('',*,*,#692,.T.);
#897=ORIENTED_EDGE('',*,*,#693,.T.);
#898=ORIENTED_EDGE('',*,*,#694,.T.);
#899=ORIENTED_EDGE('',*,*,#695,.T.);
#900=ORIENTED_EDGE('',*,*,#696,.T.);
#901=ORIENTED_EDGE('',*,*,#685,.T.);
#902=ORIENTED_EDGE('',*,*,#681,.T.);
#903=ORIENTED_EDGE('',*,*,#697,.T.);
#904=ORIENTED_EDGE('',*,*,#698,.F.);
#905=ORIENTED_EDGE('',*,*,#658,.T.);
#906=ORIENTED_EDGE('',*,*,#699,.T.);
#907=ORIENTED_EDGE('',*,*,#700,.T.);
#908=ORIENTED_EDGE('',*,*,#701,.F.);
#909=ORIENTED_EDGE('',*,*,#702,.T.);
#910=ORIENTED_EDGE('',*,*,#703,.F.);
#911=ORIENTED_EDGE('',*,*,#704,.T.);
#912=ORIENTED_EDGE('',*,*,#705,.T.);
#913=ORIENTED_EDGE('',*,*,#706,.T.);
#914=ORIENTED_EDGE('',*,*,#707,.F.);
#915=ORIENTED_EDGE('',*,*,#708,.T.);
#916=ORIENTED_EDGE('',*,*,#709,.F.);
#917=ORIENTED_EDGE('',*,*,#710,.T.);
#918=ORIENTED_EDGE('',*,*,#711,.T.);
#919=ORIENTED_EDGE('',*,*,#712,.T.);
#920=ORIENTED_EDGE('',*,*,#713,.F.);
#921=ORIENTED_EDGE('',*,*,#714,.T.);
#922=ORIENTED_EDGE('',*,*,#715,.F.);
#923=ORIENTED_EDGE('',*,*,#716,.T.);
#924=ORIENTED_EDGE('',*,*,#717,.T.);
#925=ORIENTED_EDGE('',*,*,#679,.T.);
#926=ORIENTED_EDGE('',*,*,#718,.F.);
#927=ORIENTED_EDGE('',*,*,#719,.T.);
#928=ORIENTED_EDGE('',*,*,#720,.T.);
#929=ORIENTED_EDGE('',*,*,#721,.T.);
#930=ORIENTED_EDGE('',*,*,#722,.T.);
#931=ORIENTED_EDGE('',*,*,#723,.T.);
#932=ORIENTED_EDGE('',*,*,#724,.T.);
#933=ORIENTED_EDGE('',*,*,#725,.T.);
#934=ORIENTED_EDGE('',*,*,#726,.T.);
#935=ORIENTED_EDGE('',*,*,#727,.T.);
#936=ORIENTED_EDGE('',*,*,#728,.T.);
#937=ORIENTED_EDGE('',*,*,#729,.T.);
#938=ORIENTED_EDGE('',*,*,#730,.T.);
#939=ORIENTED_EDGE('',*,*,#731,.T.);
#940=ORIENTED_EDGE('',*,*,#732,.T.);
#941=ORIENTED_EDGE('',*,*,#705,.F.);
#942=ORIENTED_EDGE('',*,*,#733,.F.);
#943=ORIENTED_EDGE('',*,*,#734,.F.);
#944=ORIENTED_EDGE('',*,*,#735,.T.);
#945=ORIENTED_EDGE('',*,*,#736,.F.);
#946=ORIENTED_EDGE('',*,*,#706,.F.);
#947=ORIENTED_EDGE('',*,*,#732,.F.);
#948=ORIENTED_EDGE('',*,*,#737,.T.);
#949=ORIENTED_EDGE('',*,*,#738,.T.);
#950=ORIENTED_EDGE('',*,*,#739,.T.);
#951=ORIENTED_EDGE('',*,*,#711,.F.);
#952=ORIENTED_EDGE('',*,*,#740,.F.);
#953=ORIENTED_EDGE('',*,*,#741,.F.);
#954=ORIENTED_EDGE('',*,*,#742,.F.);
#955=ORIENTED_EDGE('',*,*,#743,.F.);
#956=ORIENTED_EDGE('',*,*,#712,.F.);
#957=ORIENTED_EDGE('',*,*,#739,.F.);
#958=ORIENTED_EDGE('',*,*,#744,.T.);
#959=ORIENTED_EDGE('',*,*,#745,.T.);
#960=ORIENTED_EDGE('',*,*,#661,.T.);
#961=ORIENTED_EDGE('',*,*,#665,.T.);
#962=ORIENTED_EDGE('',*,*,#680,.T.);
#963=ORIENTED_EDGE('',*,*,#717,.F.);
#964=ORIENTED_EDGE('',*,*,#657,.T.);
#965=ORIENTED_EDGE('',*,*,#668,.T.);
#966=ORIENTED_EDGE('',*,*,#663,.T.);
#967=ORIENTED_EDGE('',*,*,#746,.T.);
#968=ORIENTED_EDGE('',*,*,#747,.T.);
#969=ORIENTED_EDGE('',*,*,#699,.F.);
#970=ORIENTED_EDGE('',*,*,#748,.T.);
#971=ORIENTED_EDGE('',*,*,#749,.T.);
#972=ORIENTED_EDGE('',*,*,#734,.T.);
#973=ORIENTED_EDGE('',*,*,#750,.F.);
#974=ORIENTED_EDGE('',*,*,#751,.T.);
#975=ORIENTED_EDGE('',*,*,#752,.T.);
#976=ORIENTED_EDGE('',*,*,#741,.T.);
#977=ORIENTED_EDGE('',*,*,#753,.F.);
#978=ORIENTED_EDGE('',*,*,#754,.T.);
#979=ORIENTED_EDGE('',*,*,#755,.T.);
#980=ORIENTED_EDGE('',*,*,#756,.F.);
#981=ORIENTED_EDGE('',*,*,#757,.F.);
#982=ORIENTED_EDGE('',*,*,#758,.T.);
#983=ORIENTED_EDGE('',*,*,#757,.T.);
#984=ORIENTED_EDGE('',*,*,#759,.F.);
#985=ORIENTED_EDGE('',*,*,#755,.F.);
#986=ORIENTED_EDGE('',*,*,#647,.T.);
#987=ORIENTED_EDGE('',*,*,#760,.T.);
#988=ORIENTED_EDGE('',*,*,#761,.T.);
#989=ORIENTED_EDGE('',*,*,#762,.F.);
#990=ORIENTED_EDGE('',*,*,#763,.F.);
#991=ORIENTED_EDGE('',*,*,#662,.F.);
#992=ORIENTED_EDGE('',*,*,#745,.F.);
#993=ORIENTED_EDGE('',*,*,#764,.T.);
#994=ORIENTED_EDGE('',*,*,#753,.T.);
#995=ORIENTED_EDGE('',*,*,#740,.T.);
#996=ORIENTED_EDGE('',*,*,#738,.F.);
#997=ORIENTED_EDGE('',*,*,#765,.T.);
#998=ORIENTED_EDGE('',*,*,#750,.T.);
#999=ORIENTED_EDGE('',*,*,#733,.T.);
#1000=ORIENTED_EDGE('',*,*,#731,.F.);
#1001=ORIENTED_EDGE('',*,*,#766,.T.);
#1002=ORIENTED_EDGE('',*,*,#762,.T.);
#1003=ORIENTED_EDGE('',*,*,#767,.T.);
#1004=ORIENTED_EDGE('',*,*,#746,.F.);
#1005=ORIENTED_EDGE('',*,*,#759,.T.);
#1006=ORIENTED_EDGE('',*,*,#756,.T.);
#1007=ORIENTED_EDGE('',*,*,#768,.F.);
#1008=ORIENTED_EDGE('',*,*,#769,.T.);
#1009=ORIENTED_EDGE('',*,*,#701,.T.);
#1010=ORIENTED_EDGE('',*,*,#770,.T.);
#1011=ORIENTED_EDGE('',*,*,#767,.F.);
#1012=ORIENTED_EDGE('',*,*,#761,.F.);
#1013=ORIENTED_EDGE('',*,*,#771,.F.);
#1014=ORIENTED_EDGE('',*,*,#770,.F.);
#1015=ORIENTED_EDGE('',*,*,#700,.F.);
#1016=ORIENTED_EDGE('',*,*,#747,.F.);
#1017=ORIENTED_EDGE('',*,*,#772,.F.);
#1018=ORIENTED_EDGE('',*,*,#659,.T.);
#1019=ORIENTED_EDGE('',*,*,#698,.T.);
#1020=ORIENTED_EDGE('',*,*,#773,.T.);
#1021=ORIENTED_EDGE('',*,*,#684,.T.);
#1022=ORIENTED_EDGE('',*,*,#719,.F.);
#1023=ORIENTED_EDGE('',*,*,#774,.F.);
#1024=ORIENTED_EDGE('',*,*,#775,.T.);
#1025=ORIENTED_EDGE('',*,*,#773,.F.);
#1026=ORIENTED_EDGE('',*,*,#697,.F.);
#1027=ORIENTED_EDGE('',*,*,#776,.F.);
#1028=ORIENTED_EDGE('',*,*,#777,.T.);
#1029=ORIENTED_EDGE('',*,*,#703,.T.);
#1030=ORIENTED_EDGE('',*,*,#778,.T.);
#1031=ORIENTED_EDGE('',*,*,#769,.F.);
#1032=ORIENTED_EDGE('',*,*,#779,.T.);
#1033=ORIENTED_EDGE('',*,*,#778,.F.);
#1034=ORIENTED_EDGE('',*,*,#702,.F.);
#1035=ORIENTED_EDGE('',*,*,#780,.F.);
#1036=ORIENTED_EDGE('',*,*,#781,.T.);
#1037=ORIENTED_EDGE('',*,*,#707,.T.);
#1038=ORIENTED_EDGE('',*,*,#736,.T.);
#1039=ORIENTED_EDGE('',*,*,#782,.F.);
#1040=ORIENTED_EDGE('',*,*,#783,.T.);
#1041=ORIENTED_EDGE('',*,*,#709,.T.);
#1042=ORIENTED_EDGE('',*,*,#784,.T.);
#1043=ORIENTED_EDGE('',*,*,#781,.F.);
#1044=ORIENTED_EDGE('',*,*,#785,.T.);
#1045=ORIENTED_EDGE('',*,*,#784,.F.);
#1046=ORIENTED_EDGE('',*,*,#708,.F.);
#1047=ORIENTED_EDGE('',*,*,#786,.F.);
#1048=ORIENTED_EDGE('',*,*,#787,.T.);
#1049=ORIENTED_EDGE('',*,*,#713,.T.);
#1050=ORIENTED_EDGE('',*,*,#743,.T.);
#1051=ORIENTED_EDGE('',*,*,#788,.F.);
#1052=ORIENTED_EDGE('',*,*,#789,.T.);
#1053=ORIENTED_EDGE('',*,*,#715,.T.);
#1054=ORIENTED_EDGE('',*,*,#790,.T.);
#1055=ORIENTED_EDGE('',*,*,#787,.F.);
#1056=ORIENTED_EDGE('',*,*,#791,.T.);
#1057=ORIENTED_EDGE('',*,*,#790,.F.);
#1058=ORIENTED_EDGE('',*,*,#714,.F.);
#1059=ORIENTED_EDGE('',*,*,#792,.F.);
#1060=ORIENTED_EDGE('',*,*,#774,.T.);
#1061=ORIENTED_EDGE('',*,*,#718,.T.);
#1062=ORIENTED_EDGE('',*,*,#678,.T.);
#1063=ORIENTED_EDGE('',*,*,#793,.F.);
#1064=ORIENTED_EDGE('',*,*,#751,.F.);
#1065=ORIENTED_EDGE('',*,*,#764,.F.);
#1066=ORIENTED_EDGE('',*,*,#744,.F.);
#1067=ORIENTED_EDGE('',*,*,#716,.F.);
#1068=ORIENTED_EDGE('',*,*,#789,.F.);
#1069=ORIENTED_EDGE('',*,*,#794,.T.);
#1070=ORIENTED_EDGE('',*,*,#748,.F.);
#1071=ORIENTED_EDGE('',*,*,#765,.F.);
#1072=ORIENTED_EDGE('',*,*,#737,.F.);
#1073=ORIENTED_EDGE('',*,*,#710,.F.);
#1074=ORIENTED_EDGE('',*,*,#783,.F.);
#1075=ORIENTED_EDGE('',*,*,#795,.F.);
#1076=ORIENTED_EDGE('',*,*,#763,.T.);
#1077=ORIENTED_EDGE('',*,*,#766,.F.);
#1078=ORIENTED_EDGE('',*,*,#730,.F.);
#1079=ORIENTED_EDGE('',*,*,#704,.F.);
#1080=ORIENTED_EDGE('',*,*,#777,.F.);
#1081=ORIENTED_EDGE('',*,*,#729,.F.);
#1082=ORIENTED_EDGE('',*,*,#796,.T.);
#1083=ORIENTED_EDGE('',*,*,#797,.F.);
#1084=ORIENTED_EDGE('',*,*,#796,.F.);
#1085=ORIENTED_EDGE('',*,*,#728,.F.);
#1086=ORIENTED_EDGE('',*,*,#798,.T.);
#1087=ORIENTED_EDGE('',*,*,#799,.F.);
#1088=ORIENTED_EDGE('',*,*,#798,.F.);
#1089=ORIENTED_EDGE('',*,*,#727,.F.);
#1090=ORIENTED_EDGE('',*,*,#800,.T.);
#1091=ORIENTED_EDGE('',*,*,#801,.F.);
#1092=ORIENTED_EDGE('',*,*,#800,.F.);
#1093=ORIENTED_EDGE('',*,*,#802,.F.);
#1094=ORIENTED_EDGE('',*,*,#803,.T.);
#1095=ORIENTED_EDGE('',*,*,#726,.F.);
#1096=ORIENTED_EDGE('',*,*,#804,.F.);
#1097=ORIENTED_EDGE('',*,*,#805,.F.);
#1098=ORIENTED_EDGE('',*,*,#804,.T.);
#1099=ORIENTED_EDGE('',*,*,#725,.F.);
#1100=ORIENTED_EDGE('',*,*,#806,.F.);
#1101=ORIENTED_EDGE('',*,*,#807,.T.);
#1102=ORIENTED_EDGE('',*,*,#806,.T.);
#1103=ORIENTED_EDGE('',*,*,#724,.F.);
#1104=ORIENTED_EDGE('',*,*,#803,.F.);
#1105=ORIENTED_EDGE('',*,*,#723,.F.);
#1106=ORIENTED_EDGE('',*,*,#808,.T.);
#1107=ORIENTED_EDGE('',*,*,#809,.F.);
#1108=ORIENTED_EDGE('',*,*,#808,.F.);
#1109=ORIENTED_EDGE('',*,*,#810,.F.);
#1110=ORIENTED_EDGE('',*,*,#811,.T.);
#1111=ORIENTED_EDGE('',*,*,#722,.F.);
#1112=ORIENTED_EDGE('',*,*,#812,.F.);
#1113=ORIENTED_EDGE('',*,*,#813,.F.);
#1114=ORIENTED_EDGE('',*,*,#812,.T.);
#1115=ORIENTED_EDGE('',*,*,#721,.F.);
#1116=ORIENTED_EDGE('',*,*,#814,.F.);
#1117=ORIENTED_EDGE('',*,*,#815,.T.);
#1118=ORIENTED_EDGE('',*,*,#814,.T.);
#1119=ORIENTED_EDGE('',*,*,#720,.F.);
#1120=ORIENTED_EDGE('',*,*,#811,.F.);
#1121=ORIENTED_EDGE('',*,*,#816,.T.);
#1122=ORIENTED_EDGE('',*,*,#817,.T.);
#1123=ORIENTED_EDGE('',*,*,#693,.F.);
#1124=ORIENTED_EDGE('',*,*,#818,.F.);
#1125=ORIENTED_EDGE('',*,*,#819,.T.);
#1126=ORIENTED_EDGE('',*,*,#818,.T.);
#1127=ORIENTED_EDGE('',*,*,#692,.F.);
#1128=ORIENTED_EDGE('',*,*,#820,.F.);
#1129=ORIENTED_EDGE('',*,*,#821,.T.);
#1130=ORIENTED_EDGE('',*,*,#820,.T.);
#1131=ORIENTED_EDGE('',*,*,#691,.F.);
#1132=ORIENTED_EDGE('',*,*,#822,.F.);
#1133=ORIENTED_EDGE('',*,*,#823,.T.);
#1134=ORIENTED_EDGE('',*,*,#822,.T.);
#1135=ORIENTED_EDGE('',*,*,#690,.F.);
#1136=ORIENTED_EDGE('',*,*,#688,.F.);
#1137=ORIENTED_EDGE('',*,*,#824,.T.);
#1138=ORIENTED_EDGE('',*,*,#686,.T.);
#1139=ORIENTED_EDGE('',*,*,#696,.F.);
#1140=ORIENTED_EDGE('',*,*,#825,.F.);
#1141=ORIENTED_EDGE('',*,*,#826,.T.);
#1142=ORIENTED_EDGE('',*,*,#825,.T.);
#1143=ORIENTED_EDGE('',*,*,#695,.F.);
#1144=ORIENTED_EDGE('',*,*,#827,.F.);
#1145=ORIENTED_EDGE('',*,*,#828,.T.);
#1146=ORIENTED_EDGE('',*,*,#827,.T.);
#1147=ORIENTED_EDGE('',*,*,#694,.F.);
#1148=ORIENTED_EDGE('',*,*,#817,.F.);
#1149=ORIENTED_EDGE('',*,*,#828,.F.);
#1150=ORIENTED_EDGE('',*,*,#816,.F.);
#1151=ORIENTED_EDGE('',*,*,#819,.F.);
#1152=ORIENTED_EDGE('',*,*,#821,.F.);
#1153=ORIENTED_EDGE('',*,*,#823,.F.);
#1154=ORIENTED_EDGE('',*,*,#687,.F.);
#1155=ORIENTED_EDGE('',*,*,#824,.F.);
#1156=ORIENTED_EDGE('',*,*,#826,.F.);
#1157=ORIENTED_EDGE('',*,*,#735,.F.);
#1158=ORIENTED_EDGE('',*,*,#749,.F.);
#1159=ORIENTED_EDGE('',*,*,#794,.F.);
#1160=ORIENTED_EDGE('',*,*,#782,.T.);
#1161=ORIENTED_EDGE('',*,*,#785,.F.);
#1162=ORIENTED_EDGE('',*,*,#780,.T.);
#1163=ORIENTED_EDGE('',*,*,#677,.F.);
#1164=ORIENTED_EDGE('',*,*,#651,.F.);
#1165=ORIENTED_EDGE('',*,*,#660,.F.);
#1166=ORIENTED_EDGE('',*,*,#772,.T.);
#1167=ORIENTED_EDGE('',*,*,#775,.F.);
#1168=ORIENTED_EDGE('',*,*,#792,.T.);
#1169=ORIENTED_EDGE('',*,*,#758,.F.);
#1170=ORIENTED_EDGE('',*,*,#754,.F.);
#1171=ORIENTED_EDGE('',*,*,#815,.F.);
#1172=ORIENTED_EDGE('',*,*,#810,.T.);
#1173=ORIENTED_EDGE('',*,*,#813,.T.);
#1174=ORIENTED_EDGE('',*,*,#809,.T.);
#1175=ORIENTED_EDGE('',*,*,#807,.F.);
#1176=ORIENTED_EDGE('',*,*,#802,.T.);
#1177=ORIENTED_EDGE('',*,*,#805,.T.);
#1178=ORIENTED_EDGE('',*,*,#801,.T.);
#1179=ORIENTED_EDGE('',*,*,#799,.T.);
#1180=ORIENTED_EDGE('',*,*,#797,.T.);
#1181=ORIENTED_EDGE('',*,*,#742,.T.);
#1182=ORIENTED_EDGE('',*,*,#752,.F.);
#1183=ORIENTED_EDGE('',*,*,#793,.T.);
#1184=ORIENTED_EDGE('',*,*,#788,.T.);
#1185=ORIENTED_EDGE('',*,*,#791,.F.);
#1186=ORIENTED_EDGE('',*,*,#786,.T.);
#1187=ORIENTED_EDGE('',*,*,#795,.T.);
#1188=ORIENTED_EDGE('',*,*,#776,.T.);
#1189=ORIENTED_EDGE('',*,*,#779,.F.);
#1190=ORIENTED_EDGE('',*,*,#768,.T.);
#1191=ORIENTED_EDGE('',*,*,#771,.T.);
#1192=ORIENTED_EDGE('',*,*,#760,.F.);
#1193=CYLINDRICAL_SURFACE('',#1279,1.25);
#1194=CYLINDRICAL_SURFACE('',#1292,3.);
#1195=CYLINDRICAL_SURFACE('',#1321,5.5000000372529);
#1196=CYLINDRICAL_SURFACE('',#1324,5.5000000372529);
#1197=CYLINDRICAL_SURFACE('',#1327,2.5000000372529);
#1198=CYLINDRICAL_SURFACE('',#1331,5.5000000372529);
#1199=CYLINDRICAL_SURFACE('',#1335,1.5);
#1200=CYLINDRICAL_SURFACE('',#1338,1.5);
#1201=CYLINDRICAL_SURFACE('',#1341,1.5);
#1202=CYLINDRICAL_SURFACE('',#1344,1.5);
#1203=CYLINDRICAL_SURFACE('',#1346,1.5);
#1204=CYLINDRICAL_SURFACE('',#1349,1.5);
#1205=CYLINDRICAL_SURFACE('',#1351,1.5);
#1206=CYLINDRICAL_SURFACE('',#1354,1.5);
#1207=CYLINDRICAL_SURFACE('',#1359,1.55);
#1208=CYLINDRICAL_SURFACE('',#1361,1.55);
#1209=CYLINDRICAL_SURFACE('',#1363,1.55);
#1210=CYLINDRICAL_SURFACE('',#1367,16.);
#1211=CYLINDRICAL_SURFACE('',#1369,1.55);
#1212=CYLINDRICAL_SURFACE('',#1373,16.);
#1213=CYLINDRICAL_SURFACE('',#1376,4.49999999999999);
#1214=CYLINDRICAL_SURFACE('',#1379,4.49999999999999);
#1215=CYLINDRICAL_SURFACE('',#1381,4.49999999999999);
#1216=CYLINDRICAL_SURFACE('',#1384,4.49999999999999);
#1217=ADVANCED_FACE('',(#71),#1193,.F.);
#1218=ADVANCED_FACE('',(#72),#35,.T.);
#1219=ADVANCED_FACE('',(#73),#36,.T.);
#1220=ADVANCED_FACE('',(#74),#37,.F.);
#1221=ADVANCED_FACE('',(#75),#38,.T.);
#1222=ADVANCED_FACE('',(#76),#39,.T.);
#1223=ADVANCED_FACE('',(#77),#40,.T.);
#1224=ADVANCED_FACE('',(#78,#15),#41,.T.);
#1225=ADVANCED_FACE('',(#79),#42,.T.);
#1226=ADVANCED_FACE('',(#80),#43,.T.);
#1227=ADVANCED_FACE('',(#81),#44,.T.);
#1228=ADVANCED_FACE('',(#82),#1194,.F.);
#1229=ADVANCED_FACE('',(#83),#45,.T.);
#1230=ADVANCED_FACE('',(#84,#16,#17,#18,#19,#20,#21),#46,.T.);
#1231=ADVANCED_FACE('',(#85),#47,.T.);
#1232=ADVANCED_FACE('',(#86),#48,.T.);
#1233=ADVANCED_FACE('',(#87),#49,.T.);
#1234=ADVANCED_FACE('',(#88),#50,.T.);
#1235=ADVANCED_FACE('',(#89),#51,.T.);
#1236=ADVANCED_FACE('',(#90),#52,.T.);
#1237=ADVANCED_FACE('',(#91),#1195,.T.);
#1238=ADVANCED_FACE('',(#92),#1196,.T.);
#1239=ADVANCED_FACE('',(#93),#1197,.F.);
#1240=ADVANCED_FACE('',(#94,#22),#53,.T.);
#1241=ADVANCED_FACE('',(#95),#1198,.T.);
#1242=ADVANCED_FACE('',(#96,#23),#54,.T.);
#1243=ADVANCED_FACE('',(#97),#1199,.F.);
#1244=ADVANCED_FACE('',(#98),#55,.T.);
#1245=ADVANCED_FACE('',(#99),#1200,.F.);
#1246=ADVANCED_FACE('',(#100),#56,.T.);
#1247=ADVANCED_FACE('',(#101),#1201,.F.);
#1248=ADVANCED_FACE('',(#102),#57,.T.);
#1249=ADVANCED_FACE('',(#103),#1202,.F.);
#1250=ADVANCED_FACE('',(#104),#1203,.F.);
#1251=ADVANCED_FACE('',(#105),#58,.T.);
#1252=ADVANCED_FACE('',(#106),#1204,.F.);
#1253=ADVANCED_FACE('',(#107),#1205,.F.);
#1254=ADVANCED_FACE('',(#108),#59,.T.);
#1255=ADVANCED_FACE('',(#109),#1206,.F.);
#1256=ADVANCED_FACE('',(#110),#60,.T.);
#1257=ADVANCED_FACE('',(#111),#61,.T.);
#1258=ADVANCED_FACE('',(#112),#62,.T.);
#1259=ADVANCED_FACE('',(#113),#1207,.F.);
#1260=ADVANCED_FACE('',(#114),#1208,.F.);
#1261=ADVANCED_FACE('',(#115),#1209,.F.);
#1262=ADVANCED_FACE('',(#116),#63,.T.);
#1263=ADVANCED_FACE('',(#117),#64,.T.);
#1264=ADVANCED_FACE('',(#118),#1210,.T.);
#1265=ADVANCED_FACE('',(#119),#1211,.F.);
#1266=ADVANCED_FACE('',(#120),#65,.T.);
#1267=ADVANCED_FACE('',(#121),#66,.T.);
#1268=ADVANCED_FACE('',(#122),#1212,.T.);
#1269=ADVANCED_FACE('',(#123),#67,.T.);
#1270=ADVANCED_FACE('',(#124),#1213,.T.);
#1271=ADVANCED_FACE('',(#125),#68,.T.);
#1272=ADVANCED_FACE('',(#126),#1214,.T.);
#1273=ADVANCED_FACE('',(#127),#1215,.T.);
#1274=ADVANCED_FACE('',(#128),#69,.T.);
#1275=ADVANCED_FACE('',(#129),#1216,.T.);
#1276=ADVANCED_FACE('',(#130,#24,#25,#26,#27,#28,#29,#30,#31,#32,#33,#34),
#70,.F.);
#1277=CLOSED_SHELL('',(#1217,#1218,#1219,#1220,#1221,#1222,#1223,#1224,
#1225,#1226,#1227,#1228,#1229,#1230,#1231,#1232,#1233,#1234,#1235,#1236,
#1237,#1238,#1239,#1240,#1241,#1242,#1243,#1244,#1245,#1246,#1247,#1248,
#1249,#1250,#1251,#1252,#1253,#1254,#1255,#1256,#1257,#1258,#1259,#1260,
#1261,#1262,#1263,#1264,#1265,#1266,#1267,#1268,#1269,#1270,#1271,#1272,
#1273,#1274,#1275,#1276));
#1278=AXIS2_PLACEMENT_3D('',#1739,#1387,#1388);
#1279=AXIS2_PLACEMENT_3D('',#1740,#1389,#1390);
#1280=AXIS2_PLACEMENT_3D('',#1742,#1391,#1392);
#1281=AXIS2_PLACEMENT_3D('',#1745,#1394,#1395);
#1282=AXIS2_PLACEMENT_3D('',#1746,#1396,#1397);
#1283=AXIS2_PLACEMENT_3D('',#1759,#1404,#1405);
#1284=AXIS2_PLACEMENT_3D('',#1769,#1411,#1412);
#1285=AXIS2_PLACEMENT_3D('',#1778,#1417,#1418);
#1286=AXIS2_PLACEMENT_3D('',#1784,#1422,#1423);
#1287=AXIS2_PLACEMENT_3D('',#1789,#1427,#1428);
#1288=AXIS2_PLACEMENT_3D('',#1794,#1432,#1433);
#1289=AXIS2_PLACEMENT_3D('',#1798,#1436,#1437);
#1290=AXIS2_PLACEMENT_3D('',#1800,#1439,#1440);
#1291=AXIS2_PLACEMENT_3D('',#1801,#1441,#1442);
#1292=AXIS2_PLACEMENT_3D('',#1809,#1447,#1448);
#1293=AXIS2_PLACEMENT_3D('',#1814,#1450,#1451);
#1294=AXIS2_PLACEMENT_3D('',#1817,#1453,#1454);
#1295=AXIS2_PLACEMENT_3D('',#1818,#1455,#1456);
#1296=AXIS2_PLACEMENT_3D('',#1828,#1462,#1463);
#1297=AXIS2_PLACEMENT_3D('',#1830,#1464,#1465);
#1298=AXIS2_PLACEMENT_3D('',#1834,#1467,#1468);
#1299=AXIS2_PLACEMENT_3D('',#1838,#1470,#1471);
#1300=AXIS2_PLACEMENT_3D('',#1841,#1473,#1474);
#1301=AXIS2_PLACEMENT_3D('',#1844,#1476,#1477);
#1302=AXIS2_PLACEMENT_3D('',#1850,#1480,#1481);
#1303=AXIS2_PLACEMENT_3D('',#1854,#1483,#1484);
#1304=AXIS2_PLACEMENT_3D('',#1862,#1488,#1489);
#1305=AXIS2_PLACEMENT_3D('',#1866,#1491,#1492);
#1306=AXIS2_PLACEMENT_3D('',#1874,#1496,#1497);
#1307=AXIS2_PLACEMENT_3D('',#1878,#1499,#1500);
#1308=AXIS2_PLACEMENT_3D('',#1883,#1503,#1504);
#1309=AXIS2_PLACEMENT_3D('',#1887,#1506,#1507);
#1310=AXIS2_PLACEMENT_3D('',#1892,#1510,#1511);
#1311=AXIS2_PLACEMENT_3D('',#1895,#1512,#1513);
#1312=AXIS2_PLACEMENT_3D('',#1900,#1516,#1517);
#1313=AXIS2_PLACEMENT_3D('',#1902,#1518,#1519);
#1314=AXIS2_PLACEMENT_3D('',#1904,#1520,#1521);
#1315=AXIS2_PLACEMENT_3D('',#1905,#1522,#1523);
#1316=AXIS2_PLACEMENT_3D('',#1911,#1527,#1528);
#1317=AXIS2_PLACEMENT_3D('',#1919,#1533,#1534);
#1318=AXIS2_PLACEMENT_3D('',#1925,#1538,#1539);
#1319=AXIS2_PLACEMENT_3D('',#1933,#1544,#1545);
#1320=AXIS2_PLACEMENT_3D('',#1937,#1548,#1549);
#1321=AXIS2_PLACEMENT_3D('',#1941,#1552,#1553);
#1322=AXIS2_PLACEMENT_3D('',#1945,#1555,#1556);
#1323=AXIS2_PLACEMENT_3D('',#1946,#1557,#1558);
#1324=AXIS2_PLACEMENT_3D('',#1947,#1559,#1560);
#1325=AXIS2_PLACEMENT_3D('',#1951,#1562,#1563);
#1326=AXIS2_PLACEMENT_3D('',#1952,#1564,#1565);
#1327=AXIS2_PLACEMENT_3D('',#1953,#1566,#1567);
#1328=AXIS2_PLACEMENT_3D('',#1956,#1568,#1569);
#1329=AXIS2_PLACEMENT_3D('',#1960,#1571,#1572);
#1330=AXIS2_PLACEMENT_3D('',#1962,#1574,#1575);
#1331=AXIS2_PLACEMENT_3D('',#1965,#1578,#1579);
#1332=AXIS2_PLACEMENT_3D('',#1968,#1580,#1581);
#1333=AXIS2_PLACEMENT_3D('',#1972,#1583,#1584);
#1334=AXIS2_PLACEMENT_3D('',#1974,#1586,#1587);
#1335=AXIS2_PLACEMENT_3D('',#1979,#1592,#1593);
#1336=AXIS2_PLACEMENT_3D('',#1982,#1594,#1595);
#1337=AXIS2_PLACEMENT_3D('',#1985,#1598,#1599);
#1338=AXIS2_PLACEMENT_3D('',#1987,#1601,#1602);
#1339=AXIS2_PLACEMENT_3D('',#1989,#1603,#1604);
#1340=AXIS2_PLACEMENT_3D('',#1991,#1606,#1607);
#1341=AXIS2_PLACEMENT_3D('',#1995,#1610,#1611);
#1342=AXIS2_PLACEMENT_3D('',#1998,#1612,#1613);
#1343=AXIS2_PLACEMENT_3D('',#2001,#1616,#1617);
#1344=AXIS2_PLACEMENT_3D('',#2003,#1619,#1620);
#1345=AXIS2_PLACEMENT_3D('',#2005,#1621,#1622);
#1346=AXIS2_PLACEMENT_3D('',#2007,#1624,#1625);
#1347=AXIS2_PLACEMENT_3D('',#2010,#1626,#1627);
#1348=AXIS2_PLACEMENT_3D('',#2013,#1630,#1631);
#1349=AXIS2_PLACEMENT_3D('',#2015,#1633,#1634);
#1350=AXIS2_PLACEMENT_3D('',#2017,#1635,#1636);
#1351=AXIS2_PLACEMENT_3D('',#2019,#1638,#1639);
#1352=AXIS2_PLACEMENT_3D('',#2022,#1640,#1641);
#1353=AXIS2_PLACEMENT_3D('',#2025,#1644,#1645);
#1354=AXIS2_PLACEMENT_3D('',#2027,#1647,#1648);
#1355=AXIS2_PLACEMENT_3D('',#2028,#1649,#1650);
#1356=AXIS2_PLACEMENT_3D('',#2029,#1651,#1652);
#1357=AXIS2_PLACEMENT_3D('',#2031,#1654,#1655);
#1358=AXIS2_PLACEMENT_3D('',#2033,#1657,#1658);
#1359=AXIS2_PLACEMENT_3D('',#2035,#1660,#1661);
#1360=AXIS2_PLACEMENT_3D('',#2038,#1663,#1664);
#1361=AXIS2_PLACEMENT_3D('',#2039,#1665,#1666);
#1362=AXIS2_PLACEMENT_3D('',#2042,#1668,#1669);
#1363=AXIS2_PLACEMENT_3D('',#2043,#1670,#1671);
#1364=AXIS2_PLACEMENT_3D('',#2046,#1673,#1674);
#1365=AXIS2_PLACEMENT_3D('',#2047,#1675,#1676);
#1366=AXIS2_PLACEMENT_3D('',#2053,#1680,#1681);
#1367=AXIS2_PLACEMENT_3D('',#2057,#1684,#1685);
#1368=AXIS2_PLACEMENT_3D('',#2058,#1686,#1687);
#1369=AXIS2_PLACEMENT_3D('',#2059,#1688,#1689);
#1370=AXIS2_PLACEMENT_3D('',#2062,#1691,#1692);
#1371=AXIS2_PLACEMENT_3D('',#2063,#1693,#1694);
#1372=AXIS2_PLACEMENT_3D('',#2069,#1698,#1699);
#1373=AXIS2_PLACEMENT_3D('',#2073,#1702,#1703);
#1374=AXIS2_PLACEMENT_3D('',#2074,#1704,#1705);
#1375=AXIS2_PLACEMENT_3D('',#2075,#1706,#1707);
#1376=AXIS2_PLACEMENT_3D('',#2081,#1711,#1712);
#1377=AXIS2_PLACEMENT_3D('',#2083,#1713,#1714);
#1378=AXIS2_PLACEMENT_3D('',#2085,#1716,#1717);
#1379=AXIS2_PLACEMENT_3D('',#2089,#1720,#1721);
#1380=AXIS2_PLACEMENT_3D('',#2090,#1722,#1723);
#1381=AXIS2_PLACEMENT_3D('',#2091,#1724,#1725);
#1382=AXIS2_PLACEMENT_3D('',#2093,#1726,#1727);
#1383=AXIS2_PLACEMENT_3D('',#2095,#1729,#1730);
#1384=AXIS2_PLACEMENT_3D('',#2099,#1733,#1734);
#1385=AXIS2_PLACEMENT_3D('',#2100,#1735,#1736);
#1386=AXIS2_PLACEMENT_3D('',#2101,#1737,#1738);
#1387=DIRECTION('axis',(0.,0.,1.));
#1388=DIRECTION('refdir',(1.,0.,0.));
#1389=DIRECTION('center_axis',(1.,0.,0.));
#1390=DIRECTION('ref_axis',(0.,0.,-1.));
#1391=DIRECTION('center_axis',(1.,0.,1.19391854901124E-16));
#1392=DIRECTION('ref_axis',(0.,0.,-1.));
#1393=DIRECTION('',(1.,0.,0.));
#1394=DIRECTION('center_axis',(-1.,0.,2.30364998082389E-16));
#1395=DIRECTION('ref_axis',(0.,0.,-1.));
#1396=DIRECTION('center_axis',(0.64018439966448,-0.768221279597376,0.));
#1397=DIRECTION('ref_axis',(0.,0.,-1.));
#1398=DIRECTION('',(0.630420987167029,0.525350822639191,0.571468189921078));
#1399=DIRECTION('',(0.,0.,-1.));
#1400=DIRECTION('',(-0.63042098716703,-0.525350822639191,0.571468189921078));
#1401=DIRECTION('',(0.58606871870034,0.48839059891695,0.64652771004071));
#1402=DIRECTION('',(2.30364998082389E-16,0.,1.));
#1403=DIRECTION('',(-0.58606871870034,-0.48839059891695,0.646527710040711));
#1404=DIRECTION('center_axis',(0.671615676056914,0.,-0.740899712292166));
#1405=DIRECTION('ref_axis',(-0.740899712292166,0.,-0.671615676056914));
#1406=DIRECTION('',(0.,1.,0.));
#1407=DIRECTION('',(-0.672706846749357,0.419058177461747,-0.60979975585349));
#1408=DIRECTION('',(0.740899712292166,0.,0.671615676056914));
#1409=DIRECTION('',(0.,1.,0.));
#1410=DIRECTION('',(-0.740899712292166,0.,-0.671615676056914));
#1411=DIRECTION('center_axis',(-0.528742990313503,-0.84878198036618,1.5556100011813E-15));
#1412=DIRECTION('ref_axis',(2.94209101525666E-15,0.,1.));
#1413=DIRECTION('',(0.672706846749357,-0.419058177461747,-0.60979975585349));
#1414=DIRECTION('',(2.94065472436587E-15,0.,1.));
#1415=DIRECTION('',(-0.672706846749357,0.419058177461747,-0.60979975585349));
#1416=DIRECTION('',(2.94209101525666E-15,0.,1.));
#1417=DIRECTION('center_axis',(-0.066924198681687,0.786315892581874,-0.614189277587931));
#1418=DIRECTION('ref_axis',(-0.919584524849824,0.190243902439024,0.343760904178317));
#1419=DIRECTION('',(0.672706846749357,-0.419058177461747,-0.60979975585349));
#1420=DIRECTION('',(0.994115826168116,0.,-0.108322316085304));
#1421=DIRECTION('',(-0.566741228473741,-0.536583030214902,-0.625206391228903));
#1422=DIRECTION('center_axis',(-0.0669241986816873,0.786315892581874,0.614189277587931));
#1423=DIRECTION('ref_axis',(0.919584524849824,-0.190243902439024,0.343760904178318));
#1424=DIRECTION('',(-0.672706846749357,0.419058177461747,-0.60979975585349));
#1425=DIRECTION('',(0.56674122847374,0.536583030214903,-0.625206391228903));
#1426=DIRECTION('',(-0.994115826168116,0.,-0.108322316085304));
#1427=DIRECTION('center_axis',(0.740899712292166,0.,-0.671615676056914));
#1428=DIRECTION('ref_axis',(-0.671615676056914,0.,-0.740899712292166));
#1429=DIRECTION('',(0.,-1.,0.));
#1430=DIRECTION('',(-0.671615676056914,0.,-0.740899712292166));
#1431=DIRECTION('',(0.,1.,0.));
#1432=DIRECTION('center_axis',(1.,0.,-2.30364998082389E-16));
#1433=DIRECTION('ref_axis',(-2.30364998082389E-16,0.,-1.));
#1434=DIRECTION('',(-2.30364998082389E-16,0.,-1.));
#1435=DIRECTION('',(0.,1.,0.));
#1436=DIRECTION('center_axis',(0.740899712292166,0.,0.671615676056914));
#1437=DIRECTION('ref_axis',(0.671615676056914,0.,-0.740899712292166));
#1438=DIRECTION('',(0.671615676056914,0.,-0.740899712292166));
#1439=DIRECTION('center_axis',(0.,1.,0.));
#1440=DIRECTION('ref_axis',(0.,0.,1.));
#1441=DIRECTION('center_axis',(0.671615676056914,0.,0.740899712292166));
#1442=DIRECTION('ref_axis',(0.740899712292166,0.,-0.671615676056914));
#1443=DIRECTION('',(0.740899712292166,0.,-0.671615676056914));
#1444=DIRECTION('',(0.,-1.,0.));
#1445=DIRECTION('',(-0.740899712292166,0.,0.671615676056914));
#1446=DIRECTION('',(0.672706846749357,-0.419058177461747,-0.60979975585349));
#1447=DIRECTION('center_axis',(1.,0.,0.));
#1448=DIRECTION('ref_axis',(0.,0.,-1.));
#1449=DIRECTION('',(-1.,0.,0.));
#1450=DIRECTION('center_axis',(-1.,0.,3.0626842058625E-16));
#1451=DIRECTION('ref_axis',(0.,0.,-1.));
#1452=DIRECTION('',(1.,0.,0.));
#1453=DIRECTION('center_axis',(1.,0.,-3.0626842058625E-16));
#1454=DIRECTION('ref_axis',(0.,0.,-1.));
#1455=DIRECTION('center_axis',(1.,0.,-3.0626842058625E-16));
#1456=DIRECTION('ref_axis',(-3.0626842058625E-16,0.,-1.));
#1457=DIRECTION('',(-3.0626842058625E-16,0.,-1.));
#1458=DIRECTION('',(0.,1.,0.));
#1459=DIRECTION('',(-3.0626842058625E-16,0.,-1.));
#1460=DIRECTION('',(0.,1.,0.));
#1461=DIRECTION('',(-3.0626842058625E-16,0.,-1.));
#1462=DIRECTION('center_axis',(0.,1.,0.));
#1463=DIRECTION('ref_axis',(-1.,0.,0.));
#1464=DIRECTION('center_axis',(0.,1.,0.));
#1465=DIRECTION('ref_axis',(-1.,0.,0.));
#1466=DIRECTION('',(-1.,0.,3.0626842058625E-16));
#1467=DIRECTION('center_axis',(0.,1.,0.));
#1468=DIRECTION('ref_axis',(-1.,0.,0.));
#1469=DIRECTION('',(3.0626842058625E-16,0.,1.));
#1470=DIRECTION('center_axis',(0.,1.,0.));
#1471=DIRECTION('ref_axis',(-1.,0.,0.));
#1472=DIRECTION('',(1.,0.,-3.0626842058625E-16));
#1473=DIRECTION('center_axis',(0.,1.,0.));
#1474=DIRECTION('ref_axis',(-1.,0.,0.));
#1475=DIRECTION('',(3.0626842058625E-16,0.,1.));
#1476=DIRECTION('center_axis',(0.,1.,0.));
#1477=DIRECTION('ref_axis',(1.,0.,0.));
#1478=DIRECTION('',(-0.671615676056913,0.,0.740899712292167));
#1479=DIRECTION('',(-0.740899712292166,0.,-0.671615676056914));
#1480=DIRECTION('center_axis',(0.,1.,0.));
#1481=DIRECTION('ref_axis',(0.671615676056914,0.,-0.740899712292166));
#1482=DIRECTION('',(-1.,0.,3.0626842058625E-16));
#1483=DIRECTION('center_axis',(0.,1.,0.));
#1484=DIRECTION('ref_axis',(0.,0.,1.));
#1485=DIRECTION('',(-0.667663883667953,0.,0.744462852293804));
#1486=DIRECTION('',(-0.744462852293804,0.,-0.667663883667953));
#1487=DIRECTION('',(0.667663883667954,0.,-0.744462852293803));
#1488=DIRECTION('center_axis',(0.,1.,0.));
#1489=DIRECTION('ref_axis',(0.744462852293803,0.,0.667663883667954));
#1490=DIRECTION('',(-3.0626842058625E-16,0.,-1.));
#1491=DIRECTION('center_axis',(0.,1.,0.));
#1492=DIRECTION('ref_axis',(-1.,0.,0.));
#1493=DIRECTION('',(-0.667663883667955,0.,-0.744462852293802));
#1494=DIRECTION('',(0.744462852293801,0.,-0.667663883667956));
#1495=DIRECTION('',(0.667663883667955,0.,0.744462852293802));
#1496=DIRECTION('center_axis',(0.,1.,0.));
#1497=DIRECTION('ref_axis',(-0.744462852293802,0.,0.667663883667955));
#1498=DIRECTION('',(1.,0.,-3.0626842058625E-16));
#1499=DIRECTION('center_axis',(0.,1.,0.));
#1500=DIRECTION('ref_axis',(0.,0.,-1.));
#1501=DIRECTION('',(0.740899712292166,0.,-0.671615676056914));
#1502=DIRECTION('',(0.671615676056914,0.,0.740899712292166));
#1503=DIRECTION('center_axis',(0.,1.,0.));
#1504=DIRECTION('ref_axis',(-0.671615676056914,0.,-0.740899712292166));
#1505=DIRECTION('',(3.0626842058625E-16,0.,1.));
#1506=DIRECTION('center_axis',(0.,1.,0.));
#1507=DIRECTION('ref_axis',(-1.,0.,0.));
#1508=DIRECTION('',(-1.,0.,3.0626842058625E-16));
#1509=DIRECTION('',(-2.15170091087868E-16,0.,-1.));
#1510=DIRECTION('center_axis',(0.,1.,0.));
#1511=DIRECTION('ref_axis',(-1.,0.,0.));
#1512=DIRECTION('center_axis',(0.,1.,0.));
#1513=DIRECTION('ref_axis',(-1.,0.,0.));
#1514=DIRECTION('',(-2.15170091087868E-16,0.,-1.));
#1515=DIRECTION('',(1.,0.,-3.0626842058625E-16));
#1516=DIRECTION('center_axis',(0.,1.,0.));
#1517=DIRECTION('ref_axis',(-1.,0.,0.));
#1518=DIRECTION('center_axis',(0.,1.,0.));
#1519=DIRECTION('ref_axis',(-1.,0.,0.));
#1520=DIRECTION('center_axis',(0.,1.,0.));
#1521=DIRECTION('ref_axis',(-1.,0.,0.));
#1522=DIRECTION('center_axis',(-0.321965716279795,0.876046164668462,0.359000271462457));
#1523=DIRECTION('ref_axis',(0.,-0.379191727279204,0.925318125815665));
#1524=DIRECTION('',(0.58490438457496,0.482227246606493,-0.65218382649013));
#1525=DIRECTION('',(-0.744462852293804,0.,-0.667663883667953));
#1526=DIRECTION('',(-0.584904384574961,-0.482227246606492,0.65218382649013));
#1527=DIRECTION('center_axis',(-0.744462852293803,0.,-0.667663883667954));
#1528=DIRECTION('ref_axis',(-0.667663883667954,0.,0.744462852293803));
#1529=DIRECTION('',(-0.667663883667954,0.,0.744462852293803));
#1530=DIRECTION('',(0.,1.,0.));
#1531=DIRECTION('',(-0.667663883667954,0.,0.744462852293803));
#1532=DIRECTION('',(0.,-1.,0.));
#1533=DIRECTION('center_axis',(-0.321965716279796,0.876046164668462,-0.359000271462456));
#1534=DIRECTION('ref_axis',(0.,0.379191727279203,0.925318125815665));
#1535=DIRECTION('',(0.584904384574962,0.482227246606493,0.652183826490129));
#1536=DIRECTION('',(0.744462852293801,0.,-0.667663883667956));
#1537=DIRECTION('',(-0.584904384574962,-0.482227246606493,-0.652183826490129));
#1538=DIRECTION('center_axis',(0.744462852293802,0.,-0.667663883667955));
#1539=DIRECTION('ref_axis',(-0.667663883667955,0.,-0.744462852293802));
#1540=DIRECTION('',(-0.667663883667955,0.,-0.744462852293802));
#1541=DIRECTION('',(0.,1.,0.));
#1542=DIRECTION('',(0.667663883667955,0.,0.744462852293802));
#1543=DIRECTION('',(0.,-1.,0.));
#1544=DIRECTION('center_axis',(0.310480083115088,0.907959384500452,-0.281446041163149));
#1545=DIRECTION('ref_axis',(0.,0.29607826293162,0.955163683469694));
#1546=DIRECTION('',(-0.672706846749357,0.419058177461747,0.60979975585349));
#1547=DIRECTION('',(0.671615676056914,0.,0.740899712292166));
#1548=DIRECTION('center_axis',(0.310480083115088,0.907959384500452,0.281446041163149));
#1549=DIRECTION('ref_axis',(0.,-0.29607826293162,0.955163683469694));
#1550=DIRECTION('',(-0.671615676056913,0.,0.740899712292167));
#1551=DIRECTION('',(0.672706846749357,-0.419058177461747,0.609799755853491));
#1552=DIRECTION('center_axis',(0.,1.,0.));
#1553=DIRECTION('ref_axis',(-1.,0.,0.));
#1554=DIRECTION('',(0.,-1.,0.));
#1555=DIRECTION('center_axis',(0.,1.,0.));
#1556=DIRECTION('ref_axis',(-1.,0.,0.));
#1557=DIRECTION('center_axis',(0.,1.,0.));
#1558=DIRECTION('ref_axis',(-1.,0.,0.));
#1559=DIRECTION('center_axis',(0.,1.,0.));
#1560=DIRECTION('ref_axis',(-1.,0.,0.));
#1561=DIRECTION('',(0.,-1.,0.));
#1562=DIRECTION('center_axis',(0.,1.,0.));
#1563=DIRECTION('ref_axis',(-1.,0.,0.));
#1564=DIRECTION('center_axis',(0.,1.,0.));
#1565=DIRECTION('ref_axis',(-1.,0.,0.));
#1566=DIRECTION('center_axis',(0.,1.,0.));
#1567=DIRECTION('ref_axis',(-1.,0.,0.));
#1568=DIRECTION('center_axis',(0.,-1.,0.));
#1569=DIRECTION('ref_axis',(-1.,0.,0.));
#1570=DIRECTION('',(0.,1.,0.));
#1571=DIRECTION('center_axis',(0.,-1.,0.));
#1572=DIRECTION('ref_axis',(-1.,0.,0.));
#1573=DIRECTION('',(0.,1.,0.));
#1574=DIRECTION('center_axis',(-1.,0.,-1.19391854901124E-16));
#1575=DIRECTION('ref_axis',(-1.19391854901124E-16,0.,1.));
#1576=DIRECTION('',(-1.19391854901124E-16,0.,1.));
#1577=DIRECTION('',(-1.19391854901124E-16,0.,1.));
#1578=DIRECTION('center_axis',(0.,1.,0.));
#1579=DIRECTION('ref_axis',(-1.,0.,0.));
#1580=DIRECTION('center_axis',(0.,1.,0.));
#1581=DIRECTION('ref_axis',(-1.,0.,0.));
#1582=DIRECTION('',(0.,1.,0.));
#1583=DIRECTION('center_axis',(0.,1.,0.));
#1584=DIRECTION('ref_axis',(-1.,0.,0.));
#1585=DIRECTION('',(0.,1.,0.));
#1586=DIRECTION('center_axis',(0.,1.,0.));
#1587=DIRECTION('ref_axis',(-1.,0.,0.));
#1588=DIRECTION('',(-0.740899712292166,0.,0.671615676056914));
#1589=DIRECTION('',(0.667663883667955,0.,0.744462852293802));
#1590=DIRECTION('',(0.667663883667953,0.,-0.744462852293804));
#1591=DIRECTION('',(0.740899712292166,0.,0.671615676056914));
#1592=DIRECTION('center_axis',(0.,-1.,0.));
#1593=DIRECTION('ref_axis',(0.671615676056914,0.,-0.740899712292166));
#1594=DIRECTION('center_axis',(0.,-1.,0.));
#1595=DIRECTION('ref_axis',(0.671615676056914,0.,-0.740899712292166));
#1596=DIRECTION('',(0.,1.,0.));
#1597=DIRECTION('',(0.,-1.,0.));
#1598=DIRECTION('center_axis',(-0.671615676056914,0.,0.740899712292166));
#1599=DIRECTION('ref_axis',(0.740899712292166,0.,0.671615676056914));
#1600=DIRECTION('',(-0.740899712292166,0.,-0.671615676056914));
#1601=DIRECTION('center_axis',(0.,-1.,0.));
#1602=DIRECTION('ref_axis',(1.,0.,0.));
#1603=DIRECTION('center_axis',(0.,-1.,0.));
#1604=DIRECTION('ref_axis',(1.,0.,0.));
#1605=DIRECTION('',(0.,-1.,0.));
#1606=DIRECTION('center_axis',(-1.,0.,3.0626842058625E-16));
#1607=DIRECTION('ref_axis',(3.0626842058625E-16,0.,1.));
#1608=DIRECTION('',(0.,1.,0.));
#1609=DIRECTION('',(3.0626842058625E-16,0.,1.));
#1610=DIRECTION('center_axis',(0.,-1.,0.));
#1611=DIRECTION('ref_axis',(0.,0.,1.));
#1612=DIRECTION('center_axis',(0.,-1.,0.));
#1613=DIRECTION('ref_axis',(0.,0.,1.));
#1614=DIRECTION('',(0.,1.,0.));
#1615=DIRECTION('',(0.,-1.,0.));
#1616=DIRECTION('center_axis',(-3.0626842058625E-16,0.,-1.));
#1617=DIRECTION('ref_axis',(-1.,0.,3.0626842058625E-16));
#1618=DIRECTION('',(-1.,0.,3.0626842058625E-16));
#1619=DIRECTION('center_axis',(0.,-1.,0.));
#1620=DIRECTION('ref_axis',(0.744462852293803,0.,0.667663883667954));
#1621=DIRECTION('center_axis',(0.,-1.,0.));
#1622=DIRECTION('ref_axis',(0.744462852293803,0.,0.667663883667954));
#1623=DIRECTION('',(0.,1.,0.));
#1624=DIRECTION('center_axis',(0.,-1.,0.));
#1625=DIRECTION('ref_axis',(-1.,0.,0.));
#1626=DIRECTION('center_axis',(0.,-1.,0.));
#1627=DIRECTION('ref_axis',(-1.,0.,0.));
#1628=DIRECTION('',(0.,1.,0.));
#1629=DIRECTION('',(0.,-1.,0.));
#1630=DIRECTION('center_axis',(1.,0.,-3.0626842058625E-16));
#1631=DIRECTION('ref_axis',(-3.0626842058625E-16,0.,-1.));
#1632=DIRECTION('',(-3.0626842058625E-16,0.,-1.));
#1633=DIRECTION('center_axis',(0.,-1.,0.));
#1634=DIRECTION('ref_axis',(-0.744462852293802,0.,0.667663883667955));
#1635=DIRECTION('center_axis',(0.,-1.,0.));
#1636=DIRECTION('ref_axis',(-0.744462852293802,0.,0.667663883667955));
#1637=DIRECTION('',(0.,1.,0.));
#1638=DIRECTION('center_axis',(0.,-1.,0.));
#1639=DIRECTION('ref_axis',(0.,0.,-1.));
#1640=DIRECTION('center_axis',(0.,-1.,0.));
#1641=DIRECTION('ref_axis',(0.,0.,-1.));
#1642=DIRECTION('',(0.,1.,0.));
#1643=DIRECTION('',(0.,-1.,0.));
#1644=DIRECTION('center_axis',(3.0626842058625E-16,0.,1.));
#1645=DIRECTION('ref_axis',(1.,0.,-3.0626842058625E-16));
#1646=DIRECTION('',(1.,0.,-3.0626842058625E-16));
#1647=DIRECTION('center_axis',(0.,-1.,0.));
#1648=DIRECTION('ref_axis',(-0.671615676056914,0.,-0.740899712292166));
#1649=DIRECTION('center_axis',(0.,-1.,0.));
#1650=DIRECTION('ref_axis',(-0.671615676056914,0.,-0.740899712292166));
#1651=DIRECTION('center_axis',(-0.671615676056914,0.,-0.740899712292166));
#1652=DIRECTION('ref_axis',(-0.740899712292166,0.,0.671615676056914));
#1653=DIRECTION('',(0.740899712292166,0.,-0.671615676056914));
#1654=DIRECTION('center_axis',(-0.744462852293802,0.,0.667663883667955));
#1655=DIRECTION('ref_axis',(0.667663883667955,0.,0.744462852293802));
#1656=DIRECTION('',(0.667663883667955,0.,0.744462852293802));
#1657=DIRECTION('center_axis',(0.744462852293804,0.,0.667663883667953));
#1658=DIRECTION('ref_axis',(0.667663883667953,0.,-0.744462852293804));
#1659=DIRECTION('',(-0.667663883667953,0.,0.744462852293804));
#1660=DIRECTION('center_axis',(0.,1.,0.));
#1661=DIRECTION('ref_axis',(-1.,0.,0.));
#1662=DIRECTION('',(0.,-1.,0.));
#1663=DIRECTION('center_axis',(0.,1.,0.));
#1664=DIRECTION('ref_axis',(-1.,0.,0.));
#1665=DIRECTION('center_axis',(0.,1.,0.));
#1666=DIRECTION('ref_axis',(-1.,0.,0.));
#1667=DIRECTION('',(0.,-1.,0.));
#1668=DIRECTION('center_axis',(0.,1.,0.));
#1669=DIRECTION('ref_axis',(-1.,0.,0.));
#1670=DIRECTION('center_axis',(0.,1.,0.));
#1671=DIRECTION('ref_axis',(-1.,0.,0.));
#1672=DIRECTION('',(0.,-1.,0.));
#1673=DIRECTION('center_axis',(0.,1.,0.));
#1674=DIRECTION('ref_axis',(-1.,0.,0.));
#1675=DIRECTION('center_axis',(3.0626842058625E-16,0.,1.));
#1676=DIRECTION('ref_axis',(1.,0.,-3.0626842058625E-16));
#1677=DIRECTION('',(-1.,0.,3.0626842058625E-16));
#1678=DIRECTION('',(0.,1.,0.));
#1679=DIRECTION('',(0.,1.,0.));
#1680=DIRECTION('center_axis',(1.,0.,-2.15170091087868E-16));
#1681=DIRECTION('ref_axis',(-2.15170091087868E-16,0.,-1.));
#1682=DIRECTION('',(2.15170091087868E-16,0.,1.));
#1683=DIRECTION('',(0.,1.,0.));
#1684=DIRECTION('center_axis',(0.,1.,0.));
#1685=DIRECTION('ref_axis',(-1.,0.,0.));
#1686=DIRECTION('center_axis',(0.,1.,0.));
#1687=DIRECTION('ref_axis',(-1.,0.,0.));
#1688=DIRECTION('center_axis',(0.,1.,0.));
#1689=DIRECTION('ref_axis',(-1.,0.,0.));
#1690=DIRECTION('',(0.,-1.,0.));
#1691=DIRECTION('center_axis',(0.,1.,0.));
#1692=DIRECTION('ref_axis',(-1.,0.,0.));
#1693=DIRECTION('center_axis',(1.,0.,-2.15170091087868E-16));
#1694=DIRECTION('ref_axis',(-2.15170091087868E-16,0.,-1.));
#1695=DIRECTION('',(2.15170091087868E-16,0.,1.));
#1696=DIRECTION('',(0.,1.,0.));
#1697=DIRECTION('',(0.,1.,0.));
#1698=DIRECTION('center_axis',(-3.0626842058625E-16,0.,-1.));
#1699=DIRECTION('ref_axis',(-1.,0.,3.0626842058625E-16));
#1700=DIRECTION('',(1.,0.,-3.0626842058625E-16));
#1701=DIRECTION('',(0.,1.,0.));
#1702=DIRECTION('center_axis',(0.,1.,0.));
#1703=DIRECTION('ref_axis',(-1.,0.,0.));
#1704=DIRECTION('center_axis',(0.,1.,0.));
#1705=DIRECTION('ref_axis',(-1.,0.,0.));
#1706=DIRECTION('center_axis',(-1.,0.,3.0626842058625E-16));
#1707=DIRECTION('ref_axis',(3.0626842058625E-16,0.,1.));
#1708=DIRECTION('',(3.0626842058625E-16,0.,1.));
#1709=DIRECTION('',(0.,1.,0.));
#1710=DIRECTION('',(0.,1.,0.));
#1711=DIRECTION('center_axis',(0.,1.,0.));
#1712=DIRECTION('ref_axis',(-1.,0.,0.));
#1713=DIRECTION('center_axis',(0.,1.,0.));
#1714=DIRECTION('ref_axis',(-1.,0.,0.));
#1715=DIRECTION('',(0.,1.,0.));
#1716=DIRECTION('center_axis',(-3.0626842058625E-16,0.,-1.));
#1717=DIRECTION('ref_axis',(-1.,0.,3.0626842058625E-16));
#1718=DIRECTION('',(-1.,0.,3.0626842058625E-16));
#1719=DIRECTION('',(0.,1.,0.));
#1720=DIRECTION('center_axis',(0.,1.,0.));
#1721=DIRECTION('ref_axis',(0.707106781186548,0.,-0.707106781186547));
#1722=DIRECTION('center_axis',(0.,1.,0.));
#1723=DIRECTION('ref_axis',(-1.,0.,0.));
#1724=DIRECTION('center_axis',(0.,1.,0.));
#1725=DIRECTION('ref_axis',(0.707106781186547,0.,0.707106781186548));
#1726=DIRECTION('center_axis',(0.,1.,0.));
#1727=DIRECTION('ref_axis',(-1.,0.,0.));
#1728=DIRECTION('',(0.,1.,0.));
#1729=DIRECTION('center_axis',(3.0626842058625E-16,0.,1.));
#1730=DIRECTION('ref_axis',(1.,0.,-3.0626842058625E-16));
#1731=DIRECTION('',(1.,0.,-3.0626842058625E-16));
#1732=DIRECTION('',(0.,1.,0.));
#1733=DIRECTION('center_axis',(0.,1.,0.));
#1734=DIRECTION('ref_axis',(-1.,0.,0.));
#1735=DIRECTION('center_axis',(0.,1.,0.));
#1736=DIRECTION('ref_axis',(-1.,0.,0.));
#1737=DIRECTION('center_axis',(0.,1.,0.));
#1738=DIRECTION('ref_axis',(-1.,0.,0.));
#1739=CARTESIAN_POINT('',(0.,0.,0.));
#1740=CARTESIAN_POINT('Origin',(3.05417647886167,5.5,-1.14430285687134E-14));
#1741=CARTESIAN_POINT('',(0.0541764788616705,5.5,1.24999999999999));
#1742=CARTESIAN_POINT('Origin',(0.0541764788616705,5.5,-1.14430285687134E-14));
#1743=CARTESIAN_POINT('',(6.05417647886167,5.5,1.24999999999999));
#1744=CARTESIAN_POINT('',(3.05417647886167,5.5,1.24999999999999));
#1745=CARTESIAN_POINT('Origin',(6.05417647886167,5.5,-1.14430285687134E-14));
#1746=CARTESIAN_POINT('Origin',(4.55417647886167,1.25,1.04997430842935));
#1747=CARTESIAN_POINT('',(3.05417647886167,0.,2.09994861685871));
#1748=CARTESIAN_POINT('',(4.90003914259407,1.53821888644367,3.77319842414435));
#1749=CARTESIAN_POINT('',(7.1814006538967,3.43935347919585,5.8412221098379));
#1750=CARTESIAN_POINT('',(3.05417647886167,0.,-2.09994861685874));
#1751=CARTESIAN_POINT('',(3.05417647886167,0.,3.0899029774059));
#1752=CARTESIAN_POINT('',(4.90003914259407,1.53821888644367,-3.77319842414437));
#1753=CARTESIAN_POINT('',(3.18456060027942,0.108653434514791,-2.21814007840237));
#1754=CARTESIAN_POINT('',(6.05417647886167,2.5,-2.50000000000001));
#1755=CARTESIAN_POINT('',(6.29023482962169,2.69671529230002,-2.23958981245186));
#1756=CARTESIAN_POINT('',(6.05417647886167,2.5,2.49999999999999));
#1757=CARTESIAN_POINT('',(6.05417647886167,2.5,-4.81940847727262));
#1758=CARTESIAN_POINT('',(5.45296626799838,1.99899149094726,3.16323120221209));
#1759=CARTESIAN_POINT('Origin',(13.5825095965806,0.,11.6437417204263));
#1760=CARTESIAN_POINT('',(4.90003914259407,8.22318292133758,3.77319842414435));
#1761=CARTESIAN_POINT('',(4.90003914259407,1.25,3.77319842414435));
#1762=CARTESIAN_POINT('',(13.2847243772089,3.,11.373803403391));
#1763=CARTESIAN_POINT('',(11.2996552700066,4.23658536585366,9.57436481766289));
#1764=CARTESIAN_POINT('',(11.9925764859146,3.,10.2024886286933));
#1765=CARTESIAN_POINT('',(6.80871517058546,3.,5.50338770569662));
#1766=CARTESIAN_POINT('',(11.9925764859146,0.,10.2024886286933));
#1767=CARTESIAN_POINT('',(11.9925764859146,0.,10.2024886286933));
#1768=CARTESIAN_POINT('',(15.5074235140854,0.,13.3886504315617));
#1769=CARTESIAN_POINT('Origin',(3.65302811741069,9.,-2.64279961465112));
#1770=CARTESIAN_POINT('',(3.65302811741069,9.,-2.64279961465112));
#1771=CARTESIAN_POINT('',(4.45566947239387,8.5,-3.37038326371277));
#1772=CARTESIAN_POINT('',(7.30211445610371,6.72682636146409,-5.95064755640456));
#1773=CARTESIAN_POINT('',(3.6530281174107,9.,2.64279961465111));
#1774=CARTESIAN_POINT('',(3.65302811741069,9.,-2.64279961465112));
#1775=CARTESIAN_POINT('',(4.45566947239388,8.5,3.37038326371276));
#1776=CARTESIAN_POINT('',(11.2996552700066,4.23658536585366,9.57436481766289));
#1777=CARTESIAN_POINT('',(4.45566947239388,8.5,-1.32139980732557));
#1778=CARTESIAN_POINT('Origin',(2.68430642960722,4.85906808220988,-7.83867289151602));
#1779=CARTESIAN_POINT('',(4.90003914259407,8.22318292133757,-3.77319842414438));
#1780=CARTESIAN_POINT('',(7.30211445610371,6.72682636146409,-5.95064755640456));
#1781=CARTESIAN_POINT('',(5.19241449252049,8.5,-3.45066156211996));
#1782=CARTESIAN_POINT('',(3.68816985417527,8.5,-3.28675383739081));
#1783=CARTESIAN_POINT('',(2.85311477932826,6.28518225669602,-6.03128400179391));
#1784=CARTESIAN_POINT('Origin',(0.393272012391751,5.33303792008244,6.98223387858867));
#1785=CARTESIAN_POINT('',(11.2996552700066,4.23658536585366,9.57436481766289));
#1786=CARTESIAN_POINT('',(5.19241449252048,8.5,3.45066156211995));
#1787=CARTESIAN_POINT('',(2.29806050661668,5.75966428019839,6.64359780806618));
#1788=CARTESIAN_POINT('',(2.50998104147439,8.5,3.15837428883307));
#1789=CARTESIAN_POINT('Origin',(6.05417647886167,2.5,-2.50000000000001));
#1790=CARTESIAN_POINT('',(4.90003914259407,1.25,-3.77319842414437));
#1791=CARTESIAN_POINT('',(6.05417647886167,8.5,-2.50000000000001));
#1792=CARTESIAN_POINT('',(4.90003914259407,8.5,-3.77319842414438));
#1793=CARTESIAN_POINT('',(6.05417647886167,2.5,-2.50000000000001));
#1794=CARTESIAN_POINT('Origin',(6.05417647886167,2.5,2.49999999999999));
#1795=CARTESIAN_POINT('',(6.05417647886167,8.5,2.49999999999999));
#1796=CARTESIAN_POINT('',(6.05417647886167,8.5,-4.81940847727262));
#1797=CARTESIAN_POINT('',(6.05417647886167,2.5,2.49999999999999));
#1798=CARTESIAN_POINT('Origin',(4.90003914259407,2.5,3.77319842414435));
#1799=CARTESIAN_POINT('',(4.90003914259407,8.5,3.77319842414435));
#1800=CARTESIAN_POINT('Origin',(4.55417647886167,8.5,-1.27675647831893E-14));
#1801=CARTESIAN_POINT('Origin',(3.58654843815462,0.,-2.58253667489443));
#1802=CARTESIAN_POINT('',(11.9925764859146,0.,-10.2024886286933));
#1803=CARTESIAN_POINT('',(-0.430923952649011,0.,1.05924829414273));
#1804=CARTESIAN_POINT('',(11.9925764859146,3.,-10.2024886286933));
#1805=CARTESIAN_POINT('',(11.9925764859146,0.,-10.2024886286933));
#1806=CARTESIAN_POINT('',(13.2847243772089,3.,-11.373803403391));
#1807=CARTESIAN_POINT('',(1.95962720105834,3.,-1.10775434144835));
#1808=CARTESIAN_POINT('',(7.30211445610371,6.72682636146409,-5.95064755640456));
#1809=CARTESIAN_POINT('Origin',(3.05417647886167,5.5,-1.14430285687134E-14));
#1810=CARTESIAN_POINT('',(17.5,3.,1.65831239517769));
#1811=CARTESIAN_POINT('',(14.5,3.,1.65831239517769));
#1812=CARTESIAN_POINT('',(3.05417647886167,3.,1.65831239517769));
#1813=CARTESIAN_POINT('',(17.5,3.,-1.65831239517771));
#1814=CARTESIAN_POINT('Origin',(17.5,5.5,-1.14430285687134E-14));
#1815=CARTESIAN_POINT('',(14.5,3.,-1.65831239517771));
#1816=CARTESIAN_POINT('',(3.05417647886167,3.,-1.65831239517771));
#1817=CARTESIAN_POINT('Origin',(14.5,5.5,-1.14430285687134E-14));
#1818=CARTESIAN_POINT('Origin',(17.5,0.,11.1458980337503));
#1819=CARTESIAN_POINT('',(17.5,3.,11.1458980337503));
#1820=CARTESIAN_POINT('',(17.5,3.,14.5));
#1821=CARTESIAN_POINT('',(17.5,0.,11.1458980337503));
#1822=CARTESIAN_POINT('',(17.5,0.,11.1458980337503));
#1823=CARTESIAN_POINT('',(17.5,0.,-11.1458980337503));
#1824=CARTESIAN_POINT('',(17.5,0.,14.5));
#1825=CARTESIAN_POINT('',(17.5,3.,-11.1458980337503));
#1826=CARTESIAN_POINT('',(17.5,0.,-11.1458980337503));
#1827=CARTESIAN_POINT('',(17.5,3.,14.5));
#1828=CARTESIAN_POINT('Origin',(0.,3.,0.));
#1829=CARTESIAN_POINT('',(11.1458980337503,3.,-17.5));
#1830=CARTESIAN_POINT('Origin',(14.5,3.,-14.5));
#1831=CARTESIAN_POINT('',(-11.1458980337503,3.,-17.5));
#1832=CARTESIAN_POINT('',(14.5,3.,-17.5));
#1833=CARTESIAN_POINT('',(-17.5,3.,-11.1458980337503));
#1834=CARTESIAN_POINT('Origin',(-14.5,3.,-14.5));
#1835=CARTESIAN_POINT('',(-17.5,3.,11.1458980337503));
#1836=CARTESIAN_POINT('',(-17.5,3.,-14.5));
#1837=CARTESIAN_POINT('',(-11.1458980337503,3.,17.5));
#1838=CARTESIAN_POINT('Origin',(-14.5,3.,14.5));
#1839=CARTESIAN_POINT('',(11.1458980337503,3.,17.5));
#1840=CARTESIAN_POINT('',(-14.5,3.,17.5));
#1841=CARTESIAN_POINT('Origin',(14.5,3.,14.5));
#1842=CARTESIAN_POINT('',(14.5,3.,9.09113906025502));
#1843=CARTESIAN_POINT('',(14.5,3.,-14.5));
#1844=CARTESIAN_POINT('Origin',(13.,3.,9.09113906025502));
#1845=CARTESIAN_POINT('',(11.2698773490381,3.,13.5965025402675));
#1846=CARTESIAN_POINT('',(12.3628037596638,3.,12.3908295757185));
#1847=CARTESIAN_POINT('',(9.38584280206838,3.,11.8886504315617));
#1848=CARTESIAN_POINT('',(-0.0552198271124008,3.,3.33045347832482));
#1849=CARTESIAN_POINT('',(8.37841928798301,3.,14.5));
#1850=CARTESIAN_POINT('Origin',(8.37841928798301,3.,13.));
#1851=CARTESIAN_POINT('',(-9.12498926148869,3.,14.5));
#1852=CARTESIAN_POINT('',(14.5,3.,14.5));
#1853=CARTESIAN_POINT('',(-10.2416835399294,3.,11.9985041744981));
#1854=CARTESIAN_POINT('Origin',(-9.12498926148869,3.,13.));
#1855=CARTESIAN_POINT('',(-11.3803140705554,3.,13.2681072686205));
#1856=CARTESIAN_POINT('',(-5.54632124552141,3.,6.76305128906662));
#1857=CARTESIAN_POINT('',(-13.6137026274368,3.,11.2651156176167));
#1858=CARTESIAN_POINT('',(-12.3616705691422,3.,12.3879877447377));
#1859=CARTESIAN_POINT('',(-11.8833057215593,3.,9.33567739628755));
#1860=CARTESIAN_POINT('',(-4.11519308099701,3.,0.674026774178122));
#1861=CARTESIAN_POINT('',(-14.5,3.,8.33418157078562));
#1862=CARTESIAN_POINT('Origin',(-13.,3.,8.33418157078562));
#1863=CARTESIAN_POINT('',(-14.5,3.,-8.33418157078562));
#1864=CARTESIAN_POINT('',(-14.5,3.,14.5));
#1865=CARTESIAN_POINT('',(-11.8833057215593,3.,-9.33567739628756));
#1866=CARTESIAN_POINT('Origin',(-13.,3.,-8.33418157078562));
#1867=CARTESIAN_POINT('',(-13.6137026274368,3.,-11.2651156176166));
#1868=CARTESIAN_POINT('',(-7.77970980240282,3.,-4.76005963806276));
#1869=CARTESIAN_POINT('',(-11.3803140705554,3.,-13.2681072686205));
#1870=CARTESIAN_POINT('',(-11.6175079974035,3.,-13.0553823248655));
#1871=CARTESIAN_POINT('',(-10.2416835399294,3.,-11.998504174498));
#1872=CARTESIAN_POINT('',(-1.8818045241156,3.,-2.677018425182));
#1873=CARTESIAN_POINT('',(-9.1249892614887,3.,-14.5));
#1874=CARTESIAN_POINT('Origin',(-9.1249892614887,3.,-13.));
#1875=CARTESIAN_POINT('',(8.378419287983,3.,-14.5));
#1876=CARTESIAN_POINT('',(-14.5,3.,-14.5));
#1877=CARTESIAN_POINT('',(9.38584280206837,3.,-11.8886504315617));
#1878=CARTESIAN_POINT('Origin',(8.378419287983,3.,-13.));
#1879=CARTESIAN_POINT('',(11.2698773490381,3.,-13.5965025402675));
#1880=CARTESIAN_POINT('',(4.79386814241471,3.,-7.72608684257313));
#1881=CARTESIAN_POINT('',(13.0351949042373,3.,-11.6490743973893));
#1882=CARTESIAN_POINT('',(14.5,3.,-9.09113906025503));
#1883=CARTESIAN_POINT('Origin',(13.,3.,-9.09113906025503));
#1884=CARTESIAN_POINT('',(14.5,3.,-14.5));
#1885=CARTESIAN_POINT('',(-1.49582352113833,3.,15.929925046704));
#1886=CARTESIAN_POINT('',(0.,3.,16.));
#1887=CARTESIAN_POINT('Origin',(0.,3.,0.));
#1888=CARTESIAN_POINT('',(-1.49582352113833,3.,16.));
#1889=CARTESIAN_POINT('',(-14.5,3.,16.));
#1890=CARTESIAN_POINT('',(-1.49582352113834,3.,-48.7666625801637));
#1891=CARTESIAN_POINT('',(-12.95,3.,14.5));
#1892=CARTESIAN_POINT('Origin',(-14.5,3.,14.5));
#1893=CARTESIAN_POINT('',(0.,3.,-16.));
#1894=CARTESIAN_POINT('',(-1.49582352113833,3.,-15.929925046704));
#1895=CARTESIAN_POINT('Origin',(0.,3.,0.));
#1896=CARTESIAN_POINT('',(-1.49582352113833,3.,-16.));
#1897=CARTESIAN_POINT('',(-1.49582352113834,3.,-48.7666625801637));
#1898=CARTESIAN_POINT('',(14.5,3.,-16.));
#1899=CARTESIAN_POINT('',(16.05,3.,14.5));
#1900=CARTESIAN_POINT('Origin',(14.5,3.,14.5));
#1901=CARTESIAN_POINT('',(16.05,3.,-14.5));
#1902=CARTESIAN_POINT('Origin',(14.5,3.,-14.5));
#1903=CARTESIAN_POINT('',(-12.95,3.,-14.5));
#1904=CARTESIAN_POINT('Origin',(-14.5,3.,-14.5));
#1905=CARTESIAN_POINT('Origin',(-9.41658732222612,6.,7.70854098536639));
#1906=CARTESIAN_POINT('',(-4.10277773857472,9.,5.15346217861805));
#1907=CARTESIAN_POINT('',(-9.98401523391271,4.15118532394548,11.7111972125143));
#1908=CARTESIAN_POINT('',(-6.33616629545613,9.,3.15047052761419));
#1909=CARTESIAN_POINT('',(-5.77781915623578,9.,3.65121844036516));
#1910=CARTESIAN_POINT('',(-9.40504521143733,6.46984794634811,6.57235151746852));
#1911=CARTESIAN_POINT('Origin',(-6.2846691846252,0.,3.09304988984738));
#1912=CARTESIAN_POINT('',(-6.14546301656141,9.,2.93783133831464));
#1913=CARTESIAN_POINT('',(-2.56072308962765,9.,-1.05924829414277));
#1914=CARTESIAN_POINT('',(-6.14546301656141,0.,2.93783133831464));
#1915=CARTESIAN_POINT('',(-6.14546301656141,0.,2.93783133831464));
#1916=CARTESIAN_POINT('',(-11.8833057215593,0.,9.33567739628755));
#1917=CARTESIAN_POINT('',(-2.56072308962765,0.,-1.05924829414277));
#1918=CARTESIAN_POINT('',(-11.8833057215593,0.,9.33567739628755));
#1919=CARTESIAN_POINT('Origin',(-7.92826217874869,6.,-9.04333014562209));
#1920=CARTESIAN_POINT('',(-6.33616629545612,9.,-3.1504705276142));
#1921=CARTESIAN_POINT('',(-12.2174037907941,4.15118532394548,-9.70820556151046));
#1922=CARTESIAN_POINT('',(-4.10277773857471,9.,-5.15346217861806));
#1923=CARTESIAN_POINT('',(-4.28949401275833,9.,-4.98600760062087));
#1924=CARTESIAN_POINT('',(-7.17165665455593,6.4698479463481,-8.5753431684724));
#1925=CARTESIAN_POINT('Origin',(-4.0512806277438,0.,-5.09604154085126));
#1926=CARTESIAN_POINT('',(-3.91207445968001,9.,-4.94082298931854));
#1927=CARTESIAN_POINT('',(-13.3833057215593,9.,-15.5014958255019));
#1928=CARTESIAN_POINT('',(-3.91207445968001,0.,-4.94082298931854));
#1929=CARTESIAN_POINT('',(-3.91207445968001,0.,-4.94082298931854));
#1930=CARTESIAN_POINT('',(-10.2416835399294,0.,-11.998504174498));
#1931=CARTESIAN_POINT('',(-13.3833057215593,0.,-15.5014958255019));
#1932=CARTESIAN_POINT('',(-10.2416835399294,0.,-11.998504174498));
#1933=CARTESIAN_POINT('Origin',(8.30252326532875,6.,-7.19181550501993));
#1934=CARTESIAN_POINT('',(1.63818108923995,9.,-4.86549875152762));
#1935=CARTESIAN_POINT('',(9.28480824183581,4.23658536585366,-11.7970639545394));
#1936=CARTESIAN_POINT('',(3.48667513542966,9.,-2.82631361064999));
#1937=CARTESIAN_POINT('Origin',(6.95774097618173,6.,8.67532586167842));
#1938=CARTESIAN_POINT('',(1.63818108923996,9.,4.8654987515276));
#1939=CARTESIAN_POINT('',(2.14189284628264,9.,4.30982396730849));
#1940=CARTESIAN_POINT('',(5.28726742793297,6.7268263614641,8.17334669328104));
#1941=CARTESIAN_POINT('Origin',(-1.49582352113833,0.,-1.71390679426509E-14));
#1942=CARTESIAN_POINT('',(-6.14546301656142,9.,-2.93783133831467));
#1943=CARTESIAN_POINT('',(-6.14546301656142,0.,-2.93783133831467));
#1944=CARTESIAN_POINT('',(-6.14546301656142,0.,-2.93783133831467));
#1945=CARTESIAN_POINT('Origin',(-1.49582352113833,0.,-1.71390679426509E-14));
#1946=CARTESIAN_POINT('Origin',(-1.49582352113833,9.,-1.71390679426509E-14));
#1947=CARTESIAN_POINT('Origin',(-1.49582352113833,0.,-1.71390679426509E-14));
#1948=CARTESIAN_POINT('',(1.41722576379325,9.,-4.66520570536195));
#1949=CARTESIAN_POINT('',(1.41722576379325,0.,-4.66520570536195));
#1950=CARTESIAN_POINT('',(1.41722576379325,0.,-4.66520570536195));
#1951=CARTESIAN_POINT('Origin',(-1.49582352113833,0.,-1.71390679426509E-14));
#1952=CARTESIAN_POINT('Origin',(-1.49582352113833,9.,-1.71390679426509E-14));
#1953=CARTESIAN_POINT('Origin',(-1.49582352113833,0.,-1.71390679426509E-14));
#1954=CARTESIAN_POINT('',(0.0541764788616703,0.,1.9615045720733));
#1955=CARTESIAN_POINT('',(0.0541764788616708,0.,-1.96150457207333));
#1956=CARTESIAN_POINT('Origin',(-1.49582352113833,0.,-1.71390679426509E-14));
#1957=CARTESIAN_POINT('',(0.0541764788616708,9.,-1.96150457207333));
#1958=CARTESIAN_POINT('',(0.0541764788616708,0.,-1.96150457207333));
#1959=CARTESIAN_POINT('',(0.0541764788616703,9.,1.9615045720733));
#1960=CARTESIAN_POINT('Origin',(-1.49582352113833,9.,-1.71390679426509E-14));
#1961=CARTESIAN_POINT('',(0.0541764788616703,0.,1.9615045720733));
#1962=CARTESIAN_POINT('Origin',(0.0541764788616708,0.,-1.96150457207333));
#1963=CARTESIAN_POINT('',(0.0541764788616703,0.,1.9615045720733));
#1964=CARTESIAN_POINT('',(0.0541764788616703,9.,1.9615045720733));
#1965=CARTESIAN_POINT('Origin',(-1.49582352113833,0.,-1.71390679426509E-14));
#1966=CARTESIAN_POINT('',(-3.91207445968,0.,4.94082298931851));
#1967=CARTESIAN_POINT('',(1.41722576379324,0.,4.66520570536192));
#1968=CARTESIAN_POINT('Origin',(-1.49582352113833,0.,-1.71390679426509E-14));
#1969=CARTESIAN_POINT('',(1.41722576379324,9.,4.66520570536192));
#1970=CARTESIAN_POINT('',(1.41722576379324,0.,4.66520570536192));
#1971=CARTESIAN_POINT('',(-3.91207445968,9.,4.94082298931851));
#1972=CARTESIAN_POINT('Origin',(-1.49582352113833,9.,-1.71390679426509E-14));
#1973=CARTESIAN_POINT('',(-3.91207445968,0.,4.94082298931851));
#1974=CARTESIAN_POINT('Origin',(-1.70463756011831,9.,-1.66533453693773E-14));
#1975=CARTESIAN_POINT('',(-2.56072308962765,9.,-1.05924829414277));
#1976=CARTESIAN_POINT('',(-15.6166942784407,9.,-13.4985041744981));
#1977=CARTESIAN_POINT('',(-0.430923952649011,9.,1.05924829414273));
#1978=CARTESIAN_POINT('',(13.4925764859146,9.,15.6113495684382));
#1979=CARTESIAN_POINT('Origin',(8.37841928798301,0.,13.));
#1980=CARTESIAN_POINT('',(8.37841928798301,0.,14.5));
#1981=CARTESIAN_POINT('',(9.38584280206838,0.,11.8886504315617));
#1982=CARTESIAN_POINT('Origin',(8.37841928798301,0.,13.));
#1983=CARTESIAN_POINT('',(8.37841928798301,0.,14.5));
#1984=CARTESIAN_POINT('',(9.38584280206838,0.,11.8886504315617));
#1985=CARTESIAN_POINT('Origin',(1.57170140998387,0.,4.80523581177089));
#1986=CARTESIAN_POINT('',(13.4925764859146,0.,15.6113495684382));
#1987=CARTESIAN_POINT('Origin',(13.,0.,9.09113906025502));
#1988=CARTESIAN_POINT('',(14.5,0.,9.09113906025502));
#1989=CARTESIAN_POINT('Origin',(13.,0.,9.09113906025502));
#1990=CARTESIAN_POINT('',(14.5,0.,9.09113906025502));
#1991=CARTESIAN_POINT('Origin',(14.5,0.,-11.5));
#1992=CARTESIAN_POINT('',(14.5,0.,-9.09113906025503));
#1993=CARTESIAN_POINT('',(14.5,0.,-9.09113906025503));
#1994=CARTESIAN_POINT('',(14.5,0.,-14.5));
#1995=CARTESIAN_POINT('Origin',(-9.12498926148869,0.,13.));
#1996=CARTESIAN_POINT('',(-10.2416835399294,0.,11.9985041744981));
#1997=CARTESIAN_POINT('',(-9.12498926148869,0.,14.5));
#1998=CARTESIAN_POINT('Origin',(-9.12498926148869,0.,13.));
#1999=CARTESIAN_POINT('',(-10.2416835399294,0.,11.9985041744981));
#2000=CARTESIAN_POINT('',(-9.12498926148869,0.,14.5));
#2001=CARTESIAN_POINT('Origin',(11.5,0.,14.5));
#2002=CARTESIAN_POINT('',(14.5,0.,14.5));
#2003=CARTESIAN_POINT('Origin',(-13.,0.,8.33418157078562));
#2004=CARTESIAN_POINT('',(-14.5,0.,8.33418157078562));
#2005=CARTESIAN_POINT('Origin',(-13.,0.,8.33418157078562));
#2006=CARTESIAN_POINT('',(-14.5,0.,8.33418157078562));
#2007=CARTESIAN_POINT('Origin',(-13.,0.,-8.33418157078562));
#2008=CARTESIAN_POINT('',(-11.8833057215593,0.,-9.33567739628756));
#2009=CARTESIAN_POINT('',(-14.5,0.,-8.33418157078562));
#2010=CARTESIAN_POINT('Origin',(-13.,0.,-8.33418157078562));
#2011=CARTESIAN_POINT('',(-11.8833057215593,0.,-9.33567739628756));
#2012=CARTESIAN_POINT('',(-14.5,0.,-8.33418157078562));
#2013=CARTESIAN_POINT('Origin',(-14.5,0.,11.5));
#2014=CARTESIAN_POINT('',(-14.5,0.,14.5));
#2015=CARTESIAN_POINT('Origin',(-9.1249892614887,0.,-13.));
#2016=CARTESIAN_POINT('',(-9.1249892614887,0.,-14.5));
#2017=CARTESIAN_POINT('Origin',(-9.1249892614887,0.,-13.));
#2018=CARTESIAN_POINT('',(-9.1249892614887,0.,-14.5));
#2019=CARTESIAN_POINT('Origin',(8.378419287983,0.,-13.));
#2020=CARTESIAN_POINT('',(9.38584280206837,0.,-11.8886504315617));
#2021=CARTESIAN_POINT('',(8.378419287983,0.,-14.5));
#2022=CARTESIAN_POINT('Origin',(8.378419287983,0.,-13.));
#2023=CARTESIAN_POINT('',(9.38584280206837,0.,-11.8886504315617));
#2024=CARTESIAN_POINT('',(8.378419287983,0.,-14.5));
#2025=CARTESIAN_POINT('Origin',(-11.5,0.,-14.5));
#2026=CARTESIAN_POINT('',(-14.5,0.,-14.5));
#2027=CARTESIAN_POINT('Origin',(13.,0.,-9.09113906025503));
#2028=CARTESIAN_POINT('Origin',(13.,0.,-9.09113906025503));
#2029=CARTESIAN_POINT('Origin',(11.5676625684098,0.,-13.8664408573028));
#2030=CARTESIAN_POINT('',(-2.56072308962765,0.,-1.05924829414277));
#2031=CARTESIAN_POINT('Origin',(-13.8820526251032,0.,-11.5643329477173));
#2032=CARTESIAN_POINT('',(-15.6166942784407,0.,-13.4985041744981));
#2033=CARTESIAN_POINT('Origin',(-11.6486640682218,0.,13.5673245987212));
#2034=CARTESIAN_POINT('',(-0.430923952649011,0.,1.05924829414273));
#2035=CARTESIAN_POINT('Origin',(-14.5,0.,-14.5));
#2036=CARTESIAN_POINT('',(-12.95,0.,-14.5));
#2037=CARTESIAN_POINT('',(-12.95,0.,-14.5));
#2038=CARTESIAN_POINT('Origin',(-14.5,0.,-14.5));
#2039=CARTESIAN_POINT('Origin',(14.5,0.,-14.5));
#2040=CARTESIAN_POINT('',(16.05,0.,-14.5));
#2041=CARTESIAN_POINT('',(16.05,0.,-14.5));
#2042=CARTESIAN_POINT('Origin',(14.5,0.,-14.5));
#2043=CARTESIAN_POINT('Origin',(14.5,0.,14.5));
#2044=CARTESIAN_POINT('',(16.05,0.,14.5));
#2045=CARTESIAN_POINT('',(16.05,0.,14.5));
#2046=CARTESIAN_POINT('Origin',(14.5,0.,14.5));
#2047=CARTESIAN_POINT('Origin',(-1.49582352113833,0.,-16.));
#2048=CARTESIAN_POINT('',(0.,0.,-16.));
#2049=CARTESIAN_POINT('',(-1.49582352113833,0.,-16.));
#2050=CARTESIAN_POINT('',(14.5,0.,-16.));
#2051=CARTESIAN_POINT('',(0.,0.,-16.));
#2052=CARTESIAN_POINT('',(-1.49582352113833,0.,-16.));
#2053=CARTESIAN_POINT('Origin',(-1.49582352113833,0.,-15.929925046704));
#2054=CARTESIAN_POINT('',(-1.49582352113833,0.,-15.929925046704));
#2055=CARTESIAN_POINT('',(-1.49582352113834,0.,-48.7666625801637));
#2056=CARTESIAN_POINT('',(-1.49582352113833,0.,-15.929925046704));
#2057=CARTESIAN_POINT('Origin',(0.,0.,0.));
#2058=CARTESIAN_POINT('Origin',(0.,0.,0.));
#2059=CARTESIAN_POINT('Origin',(-14.5,0.,14.5));
#2060=CARTESIAN_POINT('',(-12.95,0.,14.5));
#2061=CARTESIAN_POINT('',(-12.95,0.,14.5));
#2062=CARTESIAN_POINT('Origin',(-14.5,0.,14.5));
#2063=CARTESIAN_POINT('Origin',(-1.49582352113833,0.,16.));
#2064=CARTESIAN_POINT('',(-1.49582352113833,0.,15.929925046704));
#2065=CARTESIAN_POINT('',(-1.49582352113833,0.,16.));
#2066=CARTESIAN_POINT('',(-1.49582352113834,0.,-48.7666625801637));
#2067=CARTESIAN_POINT('',(-1.49582352113833,0.,15.929925046704));
#2068=CARTESIAN_POINT('',(-1.49582352113833,0.,16.));
#2069=CARTESIAN_POINT('Origin',(0.,0.,16.));
#2070=CARTESIAN_POINT('',(0.,0.,16.));
#2071=CARTESIAN_POINT('',(-14.5,0.,16.));
#2072=CARTESIAN_POINT('',(0.,0.,16.));
#2073=CARTESIAN_POINT('Origin',(0.,0.,0.));
#2074=CARTESIAN_POINT('Origin',(0.,0.,0.));
#2075=CARTESIAN_POINT('Origin',(-17.5,0.,-11.1458980337503));
#2076=CARTESIAN_POINT('',(-17.5,0.,-11.1458980337503));
#2077=CARTESIAN_POINT('',(-17.5,0.,11.1458980337503));
#2078=CARTESIAN_POINT('',(-17.5,0.,-14.5));
#2079=CARTESIAN_POINT('',(-17.5,0.,11.1458980337503));
#2080=CARTESIAN_POINT('',(-17.5,0.,-11.1458980337503));
#2081=CARTESIAN_POINT('Origin',(-14.5,0.,-14.5));
#2082=CARTESIAN_POINT('',(-11.1458980337503,0.,-17.5));
#2083=CARTESIAN_POINT('Origin',(-14.5,0.,-14.5));
#2084=CARTESIAN_POINT('',(-11.1458980337503,0.,-17.5));
#2085=CARTESIAN_POINT('Origin',(11.1458980337503,0.,-17.5));
#2086=CARTESIAN_POINT('',(11.1458980337503,0.,-17.5));
#2087=CARTESIAN_POINT('',(14.5,0.,-17.5));
#2088=CARTESIAN_POINT('',(11.1458980337503,0.,-17.5));
#2089=CARTESIAN_POINT('Origin',(14.5,0.,-14.5));
#2090=CARTESIAN_POINT('Origin',(14.5,0.,-14.5));
#2091=CARTESIAN_POINT('Origin',(14.5,0.,14.5));
#2092=CARTESIAN_POINT('',(11.1458980337503,0.,17.5));
#2093=CARTESIAN_POINT('Origin',(14.5,0.,14.5));
#2094=CARTESIAN_POINT('',(11.1458980337503,0.,17.5));
#2095=CARTESIAN_POINT('Origin',(-11.1458980337503,0.,17.5));
#2096=CARTESIAN_POINT('',(-11.1458980337503,0.,17.5));
#2097=CARTESIAN_POINT('',(-14.5,0.,17.5));
#2098=CARTESIAN_POINT('',(-11.1458980337503,0.,17.5));
#2099=CARTESIAN_POINT('Origin',(-14.5,0.,14.5));
#2100=CARTESIAN_POINT('Origin',(-14.5,0.,14.5));
#2101=CARTESIAN_POINT('Origin',(0.,0.,0.));
#2102=UNCERTAINTY_MEASURE_WITH_UNIT(LENGTH_MEASURE(0.01),#2106,
'DISTANCE_ACCURACY_VALUE',
'Maximum model space distance between geometric entities at asserted c
onnectivities');
#2103=UNCERTAINTY_MEASURE_WITH_UNIT(LENGTH_MEASURE(0.01),#2106,
'DISTANCE_ACCURACY_VALUE',
'Maximum model space distance between geometric entities at asserted c
onnectivities');
#2104=(
GEOMETRIC_REPRESENTATION_CONTEXT(3)
GLOBAL_UNCERTAINTY_ASSIGNED_CONTEXT((#2102))
GLOBAL_UNIT_ASSIGNED_CONTEXT((#2106,#2107,#2108))
REPRESENTATION_CONTEXT('','3D')
);
#2105=(
GEOMETRIC_REPRESENTATION_CONTEXT(3)
GLOBAL_UNCERTAINTY_ASSIGNED_CONTEXT((#2103))
GLOBAL_UNIT_ASSIGNED_CONTEXT((#2106,#2107,#2108))
REPRESENTATION_CONTEXT('','3D')
);
#2106=(
LENGTH_UNIT()
NAMED_UNIT(*)
SI_UNIT(.MILLI.,.METRE.)
);
#2107=(
NAMED_UNIT(*)
PLANE_ANGLE_UNIT()
SI_UNIT($,.RADIAN.)
);
#2108=(
NAMED_UNIT(*)
SI_UNIT($,.STERADIAN.)
SOLID_ANGLE_UNIT()
);
#2109=SHAPE_DEFINITION_REPRESENTATION(#2110,#2111);
#2110=PRODUCT_DEFINITION_SHAPE('',$,#2113);
#2111=SHAPE_REPRESENTATION('',(#1278),#2104);
#2112=PRODUCT_DEFINITION_CONTEXT('part definition',#2117,'design');
#2113=PRODUCT_DEFINITION('Extruder Mount','Extruder Mount v8',#2114,#2112);
#2114=PRODUCT_DEFINITION_FORMATION('',$,#2119);
#2115=PRODUCT_RELATED_PRODUCT_CATEGORY('Extruder Mount v8',
'Extruder Mount v8',(#2119));
#2116=APPLICATION_PROTOCOL_DEFINITION('international standard',
'automotive_design',2009,#2117);
#2117=APPLICATION_CONTEXT(
'Core Data for Automotive Mechanical Design Process');
#2118=PRODUCT_CONTEXT('part definition',#2117,'mechanical');
#2119=PRODUCT('Extruder Mount','Extruder Mount v8',$,(#2118));
#2120=PRESENTATION_STYLE_ASSIGNMENT((#2121));
#2121=SURFACE_STYLE_USAGE(.BOTH.,#2122);
#2122=SURFACE_SIDE_STYLE('',(#2123));
#2123=SURFACE_STYLE_FILL_AREA(#2124);
#2124=FILL_AREA_STYLE('\X2\AC15CCA0\X0\ - \X2\C0C8D2F4\X0\',(#2125));
#2125=FILL_AREA_STYLE_COLOUR('\X2\AC15CCA0\X0\ - \X2\C0C8D2F4\X0\',#2126);
#2126=COLOUR_RGB('\X2\AC15CCA0\X0\ - \X2\C0C8D2F4\X0\',0.627450980392157,
0.627450980392157,0.627450980392157);
ENDSEC;
END-ISO-10303-21;
